<svg xmlns="http://www.w3.org/2000/svg">

    <symbol  viewBox="0 0 56 46" id="twitter">
        <path d="M17.5775 46C11.1075 46 5.07635 44.1182 0 40.8712C4.30999 41.1501 11.9161 40.4822 16.6472 35.9696C9.53015 35.643 6.32052 30.1846 5.90188 27.8519C6.50659 28.0852 9.3906 28.3651 11.0187 27.712C2.8318 25.6592 1.57586 18.4746 1.85495 16.2819C3.38999 17.355 5.99491 17.7282 7.01827 17.6349C-0.610414 12.1765 2.13405 3.96552 3.48303 2.1927C8.95765 9.77733 17.1624 14.0371 27.3128 14.2741C27.1214 13.4347 27.0203 12.5608 27.0203 11.6633C27.0203 5.22183 32.2268 0 38.6494 0C42.0051 0 45.0288 1.42551 47.1514 3.70568C49.3938 3.18021 52.7686 1.95014 54.4184 0.88641C53.5868 3.87221 50.9979 6.36298 49.4318 7.28615C49.4191 7.25461 49.4448 7.31756 49.4318 7.28615C50.8074 7.07807 54.5296 6.36274 56 5.36511C55.2728 7.0425 52.528 9.83146 50.2754 11.3928C50.6945 29.8761 36.553 46 17.5775 46Z" fill="black" />
    </symbol>
    <symbol viewBox="0 0 20 20" id="twitter-color">
        <path d="M7.36796 17.5C5.34609 17.5 3.46136 16.9119 1.875 15.8973C3.22187 15.9844 5.59879 15.7757 7.07724 14.3655C4.85317 14.2634 3.85016 12.5577 3.71934 11.8287C3.90831 11.9016 4.80956 11.9891 5.31834 11.785C2.75994 11.1435 2.36745 8.89833 2.45467 8.21311C2.93437 8.54843 3.74841 8.66506 4.06821 8.6359C1.68425 6.93015 2.54189 4.36422 2.96345 3.81022C4.67426 6.18042 7.23825 7.51161 10.4102 7.58565C10.3504 7.32335 10.3188 7.05026 10.3188 6.76978C10.3188 4.75682 11.9459 3.125 13.9529 3.125C15.0016 3.125 15.9465 3.57047 16.6098 4.28302C17.3106 4.11882 18.3652 3.73442 18.8808 3.402C18.6209 4.33507 17.8118 5.11343 17.3224 5.40192C17.3185 5.39207 17.3265 5.41174 17.3224 5.40192C17.7523 5.3369 18.9155 5.11336 19.375 4.8016C19.1478 5.32578 18.29 6.19733 17.5861 6.68526C17.717 12.4613 13.2978 17.5 7.36796 17.5Z" fill="#47ACDF"/>
    </symbol>
    <symbol viewBox="0 0 64 64" id="instagram">
        <path d="M49.4228 18.3111C49.4228 20.3729 47.7513 22.0444 45.6895 22.0444C43.6276 22.0444 41.9561 20.3729 41.9561 18.3111C41.9561 16.2492 43.6276 14.5778 45.6895 14.5778C47.7513 14.5778 49.4228 16.2492 49.4228 18.3111Z" fill="black" />
        <path fill-rule="evenodd" clip-rule="evenodd" d="M32.0006 44.4444C38.8735 44.4444 44.445 38.8729 44.445 32C44.445 25.1271 38.8735 19.5555 32.0006 19.5555C25.1277 19.5555 19.5561 25.1271 19.5561 32C19.5561 38.8729 25.1277 44.4444 32.0006 44.4444ZM32.0006 39.4666C36.1243 39.4666 39.4673 36.1237 39.4673 32C39.4673 27.8762 36.1243 24.5333 32.0006 24.5333C27.8769 24.5333 24.5339 27.8762 24.5339 32C24.5339 36.1237 27.8769 39.4666 32.0006 39.4666Z" fill="black" />
        <path fill-rule="evenodd" clip-rule="evenodd" d="M7.11169 31.0044C7.11169 22.641 7.11169 18.4592 8.73933 15.2648C10.171 12.4549 12.4555 10.1704 15.2654 8.73872C18.4599 7.11108 22.6416 7.11108 31.005 7.11108H32.9961C41.3596 7.11108 45.5413 7.11108 48.7357 8.73872C51.5456 10.1704 53.8301 12.4549 55.2618 15.2648C56.8895 18.4592 56.8895 22.641 56.8895 31.0044V32.9955C56.8895 41.359 56.8895 45.5407 55.2618 48.7351C53.8301 51.545 51.5456 53.8295 48.7357 55.2612C45.5413 56.8889 41.3596 56.8889 32.9961 56.8889H31.005C22.6416 56.8889 18.4599 56.8889 15.2654 55.2612C12.4555 53.8295 10.171 51.545 8.73933 48.7351C7.11169 45.5407 7.11169 41.359 7.11169 32.9955V31.0044ZM31.005 12.0889H32.9961C37.26 12.0889 40.1585 12.0927 42.399 12.2758C44.5813 12.4541 45.6973 12.7773 46.4759 13.174C48.3491 14.1284 49.8721 15.6514 50.8266 17.5247C51.2233 18.3032 51.5465 19.4193 51.7248 21.6016C51.9078 23.842 51.9117 26.7406 51.9117 31.0044V32.9955C51.9117 37.2594 51.9078 40.1579 51.7248 42.3984C51.5465 44.5807 51.2233 45.6967 50.8266 46.4753C49.8721 48.3485 48.3491 49.8715 46.4759 50.826C45.6973 51.2227 44.5813 51.5459 42.399 51.7242C40.1585 51.9072 37.26 51.9111 32.9961 51.9111H31.005C26.7412 51.9111 23.8426 51.9072 21.6022 51.7242C19.4199 51.5459 18.3038 51.2227 17.5253 50.826C15.652 49.8715 14.129 48.3485 13.1746 46.4753C12.7779 45.6967 12.4547 44.5807 12.2764 42.3984C12.0933 40.1579 12.0895 37.2594 12.0895 32.9955V31.0044C12.0895 26.7406 12.0933 23.842 12.2764 21.6016C12.4547 19.4193 12.7779 18.3032 13.1746 17.5247C14.129 15.6514 15.652 14.1284 17.5253 13.174C18.3038 12.7773 19.4199 12.4541 21.6022 12.2758C23.8426 12.0927 26.7412 12.0889 31.005 12.0889Z" fill="black" />
    </symbol>
    <symbol viewBox="0 0 20 20" id="instagram-color">
        <rect x="1.25" y="1.25" width="17.5" height="17.5" rx="8.75" fill="#E2425C"/>
        <path d="M13.5 7.25C13.5 7.66421 13.1642 8 12.75 8C12.3358 8 12 7.66421 12 7.25C12 6.83579 12.3358 6.5 12.75 6.5C13.1642 6.5 13.5 6.83579 13.5 7.25Z" fill="white"/>
        <path fill-rule="evenodd" clip-rule="evenodd" d="M10 12.5C11.3807 12.5 12.5 11.3807 12.5 10C12.5 8.61929 11.3807 7.5 10 7.5C8.61929 7.5 7.5 8.61929 7.5 10C7.5 11.3807 8.61929 12.5 10 12.5ZM10 11.5C10.8284 11.5 11.5 10.8284 11.5 10C11.5 9.17157 10.8284 8.5 10 8.5C9.17157 8.5 8.5 9.17157 8.5 10C8.5 10.8284 9.17157 11.5 10 11.5Z" fill="white"/>
        <path fill-rule="evenodd" clip-rule="evenodd" d="M5 9.8C5 8.11984 5 7.27976 5.32698 6.63803C5.6146 6.07354 6.07354 5.6146 6.63803 5.32698C7.27976 5 8.11984 5 9.8 5H10.2C11.8802 5 12.7202 5 13.362 5.32698C13.9265 5.6146 14.3854 6.07354 14.673 6.63803C15 7.27976 15 8.11984 15 9.8V10.2C15 11.8802 15 12.7202 14.673 13.362C14.3854 13.9265 13.9265 14.3854 13.362 14.673C12.7202 15 11.8802 15 10.2 15H9.8C8.11984 15 7.27976 15 6.63803 14.673C6.07354 14.3854 5.6146 13.9265 5.32698 13.362C5 12.7202 5 11.8802 5 10.2V9.8ZM9.8 6H10.2C11.0566 6 11.6389 6.00078 12.089 6.03755C12.5274 6.07337 12.7516 6.1383 12.908 6.21799C13.2843 6.40973 13.5903 6.71569 13.782 7.09202C13.8617 7.24842 13.9266 7.47262 13.9624 7.91104C13.9992 8.36113 14 8.94342 14 9.8V10.2C14 11.0566 13.9992 11.6389 13.9624 12.089C13.9266 12.5274 13.8617 12.7516 13.782 12.908C13.5903 13.2843 13.2843 13.5903 12.908 13.782C12.7516 13.8617 12.5274 13.9266 12.089 13.9624C11.6389 13.9992 11.0566 14 10.2 14H9.8C8.94342 14 8.36113 13.9992 7.91104 13.9624C7.47262 13.9266 7.24842 13.8617 7.09202 13.782C6.71569 13.5903 6.40973 13.2843 6.21799 12.908C6.1383 12.7516 6.07337 12.5274 6.03755 12.089C6.00078 11.6389 6 11.0566 6 10.2V9.8C6 8.94342 6.00078 8.36113 6.03755 7.91104C6.07337 7.47262 6.1383 7.24842 6.21799 7.09202C6.40973 6.71569 6.71569 6.40973 7.09202 6.21799C7.24842 6.1383 7.47262 6.07337 7.91104 6.03755C8.36113 6.00078 8.94342 6 9.8 6Z" fill="white"/>
    </symbol>

    <symbol viewBox="0 0 64 64" id="tiktok">
        <path d="M16.9011 39.5853C17.2136 36.9975 18.2749 35.5486 20.275 34.0633C23.1367 32.0517 26.7114 33.1896 26.7114 33.1896V26.4393C27.5805 26.4171 28.4498 26.4686 29.3094 26.5932V35.2803C29.3094 35.2803 25.7358 34.1424 22.8741 36.155C20.8751 37.6392 19.8116 39.0891 19.5001 41.6769C19.4904 43.0821 19.7541 44.919 20.9684 46.5072C20.6682 46.3533 20.3622 46.1779 20.0504 45.9809C17.3753 44.1847 16.888 41.4897 16.9011 39.5853ZM44.0695 13.958C42.1009 11.8008 41.3564 9.62278 41.0873 8.09277H43.5637C43.5637 8.09277 43.07 12.1045 46.6686 16.0496L46.7185 16.1027C45.7486 15.4926 44.8591 14.7725 44.0695 13.958ZM55.9992 20.0738V28.5861C55.9992 28.5861 52.8391 28.4623 50.5005 27.8674C47.235 27.0353 45.1362 25.7591 45.1362 25.7591C45.1362 25.7591 43.6864 24.849 43.5692 24.7855V42.3634C43.5692 43.3422 43.3011 45.7864 42.484 47.825C41.4172 50.4919 39.7709 52.2424 39.4681 52.6002C39.4681 52.6002 37.4659 54.9665 33.9335 56.5599C30.7495 57.9973 27.954 57.9609 27.1184 57.9973C27.1184 57.9973 22.2859 58.1887 17.9374 55.3627C16.9971 54.7399 16.1194 54.0344 15.3156 53.2555L15.3373 53.2711C19.6868 56.097 24.5182 55.9057 24.5182 55.9057C25.3549 55.8693 28.1504 55.9057 31.3334 54.4682C34.8625 52.8748 36.868 50.5085 36.868 50.5085C37.1675 50.1507 38.8213 48.4002 39.8838 45.7323C40.6988 43.6948 40.969 41.2495 40.969 40.2707V22.6949C41.0862 22.7594 42.535 23.6695 42.535 23.6695C42.535 23.6695 44.6349 24.9467 47.9003 25.7778C50.24 26.3727 53.3991 26.4965 53.3991 26.4965V19.8263C54.4799 20.0686 55.4013 20.1341 55.9992 20.0738Z" fill="black" />
        <path d="M53.4014 19.8263V26.4944C53.4014 26.4944 50.2423 26.3707 47.9026 25.7757C44.6371 24.9436 42.5372 23.6674 42.5372 23.6674C42.5372 23.6674 41.0885 22.7573 40.9713 22.6928V40.2728C40.9713 41.2515 40.7032 43.6968 39.8861 45.7344C38.8193 48.4023 37.173 50.1528 36.8702 50.5106C36.8702 50.5106 34.8669 52.8769 31.3356 54.4703C28.1527 55.9078 25.3572 55.8714 24.5205 55.9078C24.5205 55.9078 19.6891 56.0991 15.3395 53.2732L15.3178 53.2576C14.8586 52.8129 14.4264 52.3434 14.0232 51.8513C12.6352 50.1591 11.7844 48.1579 11.5706 47.5869C11.5702 47.5844 11.5702 47.582 11.5706 47.5796C11.2266 46.5873 10.5038 44.2044 10.6026 41.8964C10.7773 37.8244 12.2098 35.325 12.5885 34.6988C13.5916 32.9914 14.8962 31.4636 16.4443 30.1837C17.8104 29.0792 19.3588 28.2005 21.0261 27.5834C22.8284 26.859 24.7584 26.4706 26.7126 26.4393V33.1896C26.7126 33.1896 23.1379 32.0559 20.2773 34.0633C18.2772 35.5486 17.2159 36.9975 16.9033 39.5853C16.8903 41.4897 17.3776 44.1847 20.0505 45.982C20.3623 46.1796 20.6683 46.355 20.9686 46.5083C21.4355 47.1153 22.0039 47.6442 22.6506 48.0736C25.2617 49.7264 27.4495 49.8418 30.2472 48.7684C32.1127 48.0508 33.5169 46.4334 34.1681 44.6413C34.5772 43.5221 34.5718 42.3957 34.5718 41.2307V8.09277H41.0831C41.3522 9.62278 42.0967 11.8008 44.0652 13.958C44.8549 14.7725 45.7444 15.4926 46.7142 16.1027C47.0007 16.3991 48.4658 17.8646 50.3465 18.7643C51.3189 19.2294 52.344 19.5857 53.4014 19.8263Z" fill="black" />
        <path d="M8.97888 45.5139V45.5191L9.14045 45.957C9.12189 45.906 9.06185 45.7511 8.97888 45.5139Z" fill="black" />
        <path d="M21.0256 27.5833C19.3584 28.2003 17.81 29.0791 16.4438 30.1836C14.8953 31.4664 13.591 32.9973 12.5892 34.7081C12.2104 35.3321 10.7779 37.8336 10.6032 41.9056C10.5045 44.2136 11.2272 46.5965 11.5712 47.5888C11.5709 47.5912 11.5709 47.5937 11.5712 47.5961C11.7883 48.1619 12.6358 50.1631 14.0238 51.8605C14.427 52.3526 14.8593 52.8221 15.3185 53.2668C13.8471 52.2915 12.5349 51.1123 11.4247 49.7678C10.0487 48.0901 9.20003 46.1098 8.97864 45.5252C8.97838 45.5211 8.97838 45.5169 8.97864 45.5127V45.5055C8.63354 44.5142 7.90862 42.1303 8.00955 39.8192C8.18427 35.7471 9.61675 33.2477 9.99549 32.6216C10.997 30.9107 12.3013 29.3797 13.8502 28.0971C15.216 26.9923 16.7645 26.1134 18.432 25.4968C19.472 25.0832 20.5555 24.7781 21.6637 24.5867C23.3338 24.3073 25.0396 24.2831 26.7176 24.515V26.4392C24.7616 26.4698 22.8297 26.8582 21.0256 27.5833Z" fill="black" />
        <path d="M41.0877 8.09271H34.5764V41.2317C34.5764 42.3966 34.5764 43.52 34.1727 44.6422C33.5151 46.4333 32.1162 48.0507 30.2518 48.7684C27.453 49.8459 25.2652 49.7263 22.6553 48.0736C22.0074 47.646 21.4376 47.1189 20.9689 46.5134C23.1925 47.6502 25.1828 47.6305 27.6484 46.6819C29.5117 45.9642 30.9127 44.3468 31.5682 42.5547C31.9784 41.4356 31.973 40.3091 31.973 39.1452V6H40.964C40.964 6 40.8631 6.82377 41.0877 8.09271ZM53.4006 17.9821V19.8262C52.345 19.5853 51.3218 19.2289 50.3511 18.7643C48.4704 17.8646 47.0054 16.399 46.7189 16.1026C47.0513 16.3118 47.3963 16.5021 47.752 16.6726C50.0386 17.7668 52.2904 18.0934 53.4006 17.9821Z" fill="black" />
    </symbol>
    <symbol viewBox="0 0 20 20" id="tiktok-color">
        <path d="M5.28185 12.3705C5.37952 11.5618 5.71119 11.1091 6.3362 10.6449C7.23049 10.0163 8.34758 10.3719 8.34758 10.3719V8.26241C8.61916 8.25546 8.89084 8.27156 9.15946 8.31051V11.0252C9.15946 11.0252 8.04271 10.6696 7.14842 11.2986C6.52374 11.7624 6.19139 12.2155 6.09406 13.0242C6.09101 13.4633 6.17342 14.0373 6.55291 14.5336C6.45908 14.4855 6.36345 14.4307 6.266 14.3692C5.43005 13.8078 5.27778 12.9657 5.28185 12.3705ZM13.772 4.36199C13.1568 3.68786 12.9241 3.00724 12.84 2.52911H13.6139C13.6139 2.52911 13.4596 3.78277 14.5842 5.01563L14.5998 5.03221C14.2967 4.84156 14.0188 4.61652 13.772 4.36199ZM17.5 6.27319V8.93328C17.5 8.93328 16.5125 8.8946 15.7817 8.70868C14.7612 8.44865 14.1053 8.04983 14.1053 8.04983C14.1053 8.04983 13.6523 7.76543 13.6156 7.7456V13.2387C13.6156 13.5445 13.5319 14.3084 13.2765 14.9454C12.9431 15.7788 12.4287 16.3259 12.3341 16.4377C12.3341 16.4377 11.7084 17.1771 10.6045 17.6751C9.60949 18.1243 8.73589 18.1129 8.47476 18.1243C8.47476 18.1243 6.96461 18.1841 5.60572 17.301C5.31186 17.1063 5.03757 16.8859 4.78638 16.6425L4.79316 16.6473C6.15239 17.5305 7.6622 17.4706 7.6622 17.4706C7.92367 17.4593 8.79727 17.4706 9.79194 17.0214C10.8948 16.5235 11.5215 15.784 11.5215 15.784C11.6151 15.6722 12.1319 15.1252 12.4639 14.2915C12.7186 13.6547 12.8031 12.8906 12.8031 12.5847V7.09228C12.8397 7.11243 13.2924 7.39684 13.2924 7.39684C13.2924 7.39684 13.9487 7.79598 14.9691 8.05568C15.7003 8.2416 16.6875 8.28028 16.6875 8.28028V6.19583C17.0252 6.27157 17.3132 6.29204 17.5 6.27319Z" fill="#EE1D52"/>
        <path d="M16.6878 6.19583V8.27963C16.6878 8.27963 15.7006 8.24095 14.9694 8.05503C13.949 7.79501 13.2928 7.39619 13.2928 7.39619C13.2928 7.39619 12.84 7.11178 12.8034 7.09163V12.5854C12.8034 12.8912 12.7196 13.6554 12.4643 14.2921C12.1309 15.1258 11.6164 15.6729 11.5218 15.7847C11.5218 15.7847 10.8958 16.5241 9.79226 17.0221C8.79759 17.4713 7.92399 17.4599 7.66252 17.4713C7.66252 17.4713 6.15271 17.5311 4.79348 16.648L4.78669 16.6431C4.64319 16.5042 4.50811 16.3574 4.38211 16.2037C3.94836 15.6748 3.68249 15.0495 3.61568 14.871C3.61556 14.8703 3.61556 14.8695 3.61568 14.8687C3.50817 14.5587 3.28231 13.814 3.31317 13.0928C3.36777 11.8202 3.81542 11.0392 3.93378 10.8435C4.24724 10.3099 4.65493 9.83251 5.13871 9.43253C5.56562 9.08738 6.0495 8.81277 6.57052 8.61994C7.13376 8.39354 7.73688 8.2722 8.34756 8.26241V10.3719C8.34756 10.3719 7.23047 10.0176 6.33652 10.6449C5.7115 11.1091 5.37983 11.5618 5.28216 12.3705C5.27809 12.9657 5.43036 13.8078 6.26564 14.3695C6.36308 14.4312 6.45872 14.4861 6.55254 14.534C6.69847 14.7236 6.87608 14.8889 7.0782 15.0231C7.89414 15.5396 8.57783 15.5757 9.45211 15.2403C10.0351 15.016 10.4739 14.5106 10.6774 13.9505C10.8052 13.6008 10.8035 13.2488 10.8035 12.8847V2.52911H12.8383C12.9224 3.00724 13.1551 3.68786 13.7703 4.36199C14.017 4.61652 14.295 4.84156 14.5981 5.03221C14.6876 5.12484 15.1454 5.58282 15.7331 5.86397C16.037 6.0093 16.3574 6.12065 16.6878 6.19583Z" fill="black"/>
        <path d="M2.80591 14.2231V14.2248L2.8564 14.3616C2.8506 14.3457 2.83184 14.2973 2.80591 14.2231Z" fill="#69C9D0"/>
        <path d="M6.57051 8.61984C6.0495 8.81266 5.56561 9.08728 5.1387 9.43243C4.65477 9.83331 4.24718 10.3117 3.93411 10.8463C3.81576 11.0414 3.3681 11.8231 3.3135 13.0956C3.28264 13.8168 3.5085 14.5615 3.61601 14.8716C3.61589 14.8723 3.61589 14.8731 3.61601 14.8738C3.68383 15.0507 3.94869 15.676 4.38244 16.2065C4.50844 16.3602 4.64352 16.507 4.78702 16.6459C4.32723 16.3411 3.91716 15.9727 3.57023 15.5525C3.14021 15.0282 2.87501 14.4094 2.80583 14.2267C2.80574 14.2254 2.80574 14.2241 2.80583 14.2228V14.2205C2.69798 13.9108 2.47144 13.1658 2.50298 12.4436C2.55758 11.171 3.00523 10.39 3.12359 10.1943C3.43657 9.65964 3.84417 9.18122 4.32818 8.78041C4.755 8.43514 5.23891 8.16051 5.75999 7.96782C6.08501 7.83857 6.42361 7.74322 6.76992 7.68341C7.29183 7.5961 7.82487 7.58853 8.34925 7.66099V8.2623C7.738 8.27189 7.13427 8.39324 6.57051 8.61984Z" fill="#69C9D0"/>
        <path d="M12.8399 2.52897H10.8051V12.8849C10.8051 13.2489 10.8051 13.6 10.6789 13.9507C10.4734 14.5104 10.0363 15.0158 9.45365 15.2401C8.57904 15.5768 7.89535 15.5395 7.07974 15.023C6.87727 14.8894 6.69921 14.7246 6.55273 14.5354C7.24761 14.8907 7.86958 14.8845 8.64008 14.5881C9.22237 14.3638 9.66018 13.8584 9.86502 13.2984C9.99321 12.9486 9.99151 12.5966 9.99151 12.2329V1.875H12.8012C12.8012 1.875 12.7697 2.13243 12.8399 2.52897ZM16.6876 5.6194V6.19569C16.3578 6.12039 16.038 6.00904 15.7347 5.86383C15.147 5.58267 14.6891 5.1247 14.5996 5.03206C14.7035 5.09744 14.8113 5.15691 14.9225 5.21018C15.637 5.55212 16.3407 5.65418 16.6876 5.6194Z" fill="#69C9D0"/>
    </symbol>

    <symbol width="64" height="64" viewBox="0 0 64 64" id="scribble">
        <path d="M16.5001 29.4779C15.0667 30.7779 13.6778 31.9112 12.3445 33.3112C10.3889 35.3557 8.56673 37.5223 6.68895 39.6335C6.20006 40.1779 5.81117 40.9779 4.87784 40.5557C4.26673 40.2779 4.26673 39.5779 4.85561 38.4224C5.20006 37.7557 5.58895 37.1112 6.0445 36.5112C8.62228 33.1001 11.6667 30.1557 15.1778 27.7112C15.7778 27.3001 16.4334 26.9223 17.1223 26.689C18.4334 26.2557 19.4445 27.0112 19.3223 28.389C19.2445 29.2779 18.9334 30.1668 18.6667 31.0335C18.1556 32.6779 17.5667 34.289 17.0778 35.9446C16.9445 36.4001 16.7778 37.189 17.0556 37.5335C17.5334 38.0446 18.9556 36.5779 19.5889 35.9001C21.5334 33.8446 23.4112 31.7223 25.3334 29.6446C27.2556 27.5557 29.3778 25.6779 31.8556 24.2668C32.5778 23.8557 33.3556 23.5001 34.1556 23.289C35.4445 22.9446 36.4667 23.8001 36.3778 25.1446C36.3334 25.789 36.1445 26.4557 35.8667 27.0446C35.1556 28.5223 34.3445 29.9446 33.6001 31.4001C32.8223 32.9223 32.0112 34.4446 31.7223 36.5112C32.2667 36.0224 32.6223 35.7446 32.9223 35.4112C34.8778 33.3001 36.7889 31.1557 38.7667 29.0668C40.5667 27.1668 42.489 25.389 44.8112 24.1446C45.689 23.6779 46.6778 23.3112 47.6556 23.1779C49.0112 23.0001 49.9445 24.0335 49.6778 25.3779C49.4778 26.3668 49.0556 27.3223 48.6334 28.2335C47.8223 29.9557 46.9334 31.6335 46.1001 33.3335C45.9112 33.7112 45.3334 34.6001 45.8556 34.689C46.4112 34.1001 46.9667 33.5001 47.5334 32.9223C49.0334 31.3557 50.5001 29.7668 52.0445 28.2446C53.4334 26.8668 54.9778 25.6779 56.9556 25.2335C58.6223 24.8557 59.8001 25.889 59.5334 27.5779C59.4001 28.389 59.1334 29.2223 58.7556 29.9557C57.1112 33.189 55.4112 36.389 53.7223 39.6001C53.5334 39.9446 53.3223 40.3112 53.0223 40.5557C52.7445 40.7779 52.2778 41.0335 52.0112 40.9335C51.7445 40.8335 51.2556 40.4779 51.3112 39.7779C51.3667 39.1335 51.5556 38.6557 51.8112 38.0779C52.989 35.4112 54.2334 32.7779 55.4556 30.1335C55.789 29.4223 56.1445 28.7223 56.489 28.0112C56.6112 27.8001 56.5778 27.7668 56.5112 27.689C56.189 27.5223 55.3001 28.2001 54.9334 28.5557C52.8334 30.5779 50.7667 32.6223 48.7112 34.6779C47.9001 35.489 47.1556 36.3779 46.3445 37.189C45.6778 37.8557 44.8556 38.2335 43.9334 37.789C43.0112 37.3446 42.7556 36.4112 42.9112 35.5223C43.1334 34.2223 43.4112 32.9001 43.9445 31.7112C44.7445 29.9001 45.789 28.189 46.7223 26.4335C46.8778 26.1335 47.0112 25.8112 47.2667 25.2335C46.689 25.4779 46.3334 25.5779 46.0112 25.7557C43.9001 26.9335 42.1112 28.5223 40.5001 30.289C38.5667 32.4112 36.7556 34.6446 34.8445 36.8001C34.0889 37.6557 33.3112 38.5335 32.4112 39.2223C30.6667 40.5779 28.9223 39.8557 28.7001 37.6668C28.6001 36.6335 28.7556 35.5446 29.0001 34.5335C29.6112 31.9668 31.0001 29.7335 32.3112 27.4779C32.5889 27.0001 32.8667 26.5223 33.0445 25.9779C30.9001 26.7668 29.1667 28.1223 27.6001 29.6557C25.1667 32.0335 22.8667 34.5557 20.4889 36.9779C19.8778 37.6001 19.2001 38.2001 18.4556 38.6557C17.1889 39.4224 15.8112 38.8335 15.5001 37.389C15.2667 36.3335 15.2556 35.1668 15.4223 34.1001C15.6556 32.5335 16.6778 29.6557 16.6334 29.4779C16.6334 29.3112 16.5001 29.4779 16.5001 29.4779Z" fill="#81ADC8" />
    </symbol>

    <symbol width="64" height="64" viewBox="0 0 64 64" id="shining-stars">
        <path d="M57.1557 20.3002C57.5001 20.678 57.5446 21.2335 57.2779 21.678C57.0334 22.0891 56.8223 22.4446 56.5779 22.778C54.0446 26.2891 52.6557 28.1224 50.1557 31.6557C49.5223 32.5446 47.989 35.2669 47.4001 36.2002C47.389 36.2113 47.389 36.2224 47.3779 36.2335C46.8446 37.0335 45.5334 36.978 45.1112 36.1002C45.1112 36.1002 45.1112 36.0891 45.1001 36.0891C44.4779 34.7224 43.9779 33.3113 43.4001 31.9224C41.8112 28.0891 39.6001 24.7668 35.9223 22.5891C34.589 21.8002 34.5668 21.2224 35.6001 20.078C35.989 19.6557 36.3779 19.2224 36.8001 18.8446C40.8779 15.2113 43.689 10.7224 45.789 5.72241C45.9223 5.41129 46.189 5.16685 46.4779 4.92241C46.8557 4.61129 47.4001 4.65574 47.7334 5.01129C48.0112 5.30018 48.2668 5.61129 48.4223 5.95574C48.7668 6.75574 48.8557 7.65574 49.0668 8.51129C50.2001 13.1669 52.7223 16.878 56.5557 19.7335C56.7668 19.8891 56.9557 20.0891 57.1557 20.3002ZM46.9446 9.14463C45.6223 11.3446 44.5112 13.6113 43.0001 15.5891C41.4557 17.6002 39.5223 19.3113 37.7557 21.1668C42.2446 23.8557 44.8446 28.1113 46.4112 33.3335C48.7112 28.578 51.889 24.8002 55.3779 21.2668C49.8668 17.0668 48.5557 15.1669 46.9446 9.14463Z" fill="black" />
        <path d="M15.2556 58.6448C14.2445 55.7781 13.3667 52.8559 12.2556 50.0336C11.1667 47.3003 9.5445 44.867 7.21117 42.9892C6.35561 42.3003 6.37784 41.6781 7.07784 40.9003C11.0112 36.6225 14.0334 31.7781 16.2001 26.3892C16.4334 25.8114 17.0556 24.8892 17.489 24.8892C18.6667 24.6114 19.089 26.9114 19.1334 27.1225C20.1223 32.5448 23.4778 36.4892 27.2445 40.1781C28.4667 41.3781 28.5667 41.7448 27.3667 42.9003C22.8445 47.2337 19.8445 52.567 17.2667 58.1781C16.4556 60.1337 15.3778 58.9892 15.2556 58.6448ZM8.56673 41.667C10.9667 43.1892 12.5556 45.2225 13.7112 47.5225C14.8334 49.7781 15.6556 52.167 16.589 54.4559C18.7445 49.6336 21.6556 45.1781 26.0778 41.7892C21.8001 38.4225 18.4223 34.5781 17.389 29.067C15.5334 34.0225 12.5889 38.1448 8.56673 41.667Z" fill="#81ADC8" />
        <path d="M45.6222 46.6892C43.1666 49.9892 41.6666 53.7559 40.2888 57.5893C40.2 57.8337 39.9111 59.2226 38.8555 59.2115C38.5555 59.2115 38.0555 58.7337 37.8666 58.3559C37.0333 56.6559 36.5111 54.7559 35.4555 53.2226C34.2111 51.4004 32.5 49.9004 31.0555 48.2226C30.8444 47.9781 30.7666 47.4226 30.9 47.1226C31.1555 46.567 31.6111 46.1226 31.9666 45.6115C33.7777 42.9448 35.5555 40.2559 37.4222 37.6337C37.8111 37.0893 38.5777 36.4337 39.0333 36.4337C40.1666 36.4226 40.3888 37.3115 40.5888 37.9448C41.5 40.8559 43.0666 43.2893 45.3444 45.3004C46.1555 46.0559 45.7222 46.5559 45.6222 46.6892ZM33.1444 47.4559C35.7888 49.3337 37.5888 52.0448 38.6777 55.0781C40.2888 52.1226 41.9333 49.1115 43.6222 46.0004C41.3555 44.4337 39.7777 41.5115 39.0555 39.3559C37.0777 42.067 35.1222 44.7448 33.1444 47.4559Z" fill="#CD4631" />
    </symbol>

    <symbol width="64" height="64" viewBox="0 0 64 64" id="fire">
        <path d="M44.0443 18.722C43.7666 21.4665 43.5666 23.7554 43.2888 26.0331C43.1332 27.2776 42.6221 28.3554 41.2221 28.6554C40.0555 28.8998 38.8444 28.2554 38.1444 26.822C37.4666 25.4443 36.9777 23.9665 36.4666 22.5109C34.9888 18.3331 32.711 14.622 29.8888 11.2331C29.011 10.1776 28.1444 9.12204 27.1332 7.89981C26.911 8.64426 26.7332 9.24426 26.5555 9.84426C24.6666 16.3665 24.0221 23.0109 24.311 29.7776C24.3999 31.9665 24.1444 34.1998 23.8332 36.3776C23.6332 37.7776 23.111 39.1998 21.4221 39.5109C20.211 39.7331 19.011 38.7331 18.2777 36.9109C17.7888 35.6887 17.4666 34.3887 17.0221 33.1443C16.7777 32.4443 16.4221 31.7887 16.0999 31.0554C12.0221 36.0109 15.1332 52.3554 20.5666 54.7443C20.5888 50.3665 22.5999 46.7443 24.9777 43.322C28.3444 38.4776 30.1777 33.122 30.7888 27.2998C30.8332 26.8665 30.9221 26.422 30.9999 25.9998C31.3777 24.022 32.1888 23.6998 33.6666 25.1665C34.6221 26.1109 35.4666 27.2776 36.0221 28.4887C38.7777 34.422 39.9221 40.5776 38.0555 47.0443C37.8444 47.7554 37.3666 48.7554 37.7221 49.2665C38.3444 50.0443 39.3221 48.7109 39.5332 48.1665C40.0888 46.7331 40.4332 45.2331 40.8777 43.7554C41.1555 42.8331 41.3221 41.822 41.8221 41.022C42.211 40.3998 43.0555 39.6331 43.6332 39.6887C44.2332 39.7443 45.0666 40.5998 45.2666 41.2665C46.7332 46.2331 46.0443 50.7776 41.4666 54.6331C39.111 56.622 36.211 57.2665 33.2444 57.6554C29.8999 58.0887 26.5999 58.222 23.2444 57.4554C21.6444 57.0887 19.9777 56.8443 19.011 56.4887C18.0444 56.1331 17.2221 55.4109 16.8332 54.8109C11.8888 47.1776 11.0777 39.1331 14.5555 30.6998C15.2777 28.9554 16.6666 28.5887 17.8888 30.0331C18.7888 31.0998 19.2999 32.5331 19.8666 33.8665C20.2555 34.7998 20.4666 35.8109 20.7332 36.7887C21.0666 38.0109 21.5555 38.1998 21.8888 37.9887C22.2999 37.8665 22.5444 36.3887 22.4999 34.9109C22.4221 32.4776 22.4666 30.0331 22.211 27.622C21.4666 20.5554 23.1888 13.9331 25.6999 7.44426C26.3221 5.82203 27.0332 5.62203 28.3666 6.75537C33.8332 11.3887 37.7777 17.0331 39.5666 24.0554C39.8444 25.122 39.9332 26.322 41.2888 27.1665C41.4221 26.1331 41.5332 25.2776 41.6555 24.4331C41.9666 22.3443 42.1666 20.2331 42.6332 18.1887C42.9221 16.9554 43.7777 16.6998 44.6777 17.5887C45.8555 18.7554 47.011 20.0443 47.7777 21.4998C50.6332 26.9443 51.611 32.8554 51.5888 38.9443C51.5666 43.7331 50.6777 48.3776 48.4777 52.6554C47.7332 54.1109 46.4777 55.3109 45.411 56.5887C44.9332 57.1665 43.8443 56.9776 44.3443 55.6887C44.3888 55.5776 44.4444 55.4443 44.5221 55.3331C48.6555 49.7887 49.0666 43.2998 49.1221 36.7665C49.1666 31.5554 48.411 26.4443 45.9777 21.7331C45.4666 20.7665 44.811 19.8998 44.0443 18.722ZM43.4443 41.5109C42.7888 43.6887 42.2777 45.4887 41.6888 47.2776C41.2221 48.6887 40.511 49.9665 39.111 50.6665C37.4888 51.4887 35.911 50.5776 35.8221 48.7554C35.7888 48.0109 35.8221 47.2443 35.9666 46.522C37.0999 40.722 36.5666 35.0998 34.2999 29.6443C33.911 28.7109 33.3444 27.8554 32.7777 26.8331C32.5777 27.1665 32.4332 28.3776 32.411 28.8998C32.2666 32.8554 31.8221 36.7665 29.7444 40.2554C28.4999 42.3331 27.0999 44.322 25.7444 46.3442C24.2444 48.5998 22.911 50.9331 22.4221 53.6443C22.0888 55.4998 22.2332 55.5887 24.011 56.0443C27.7777 56.9998 31.4666 56.3887 35.1444 55.6554C39.3332 54.822 41.9444 52.0665 43.4999 48.2665C44.3555 46.1887 44.111 44.0331 43.4443 41.5109Z" fill="#CD4631" />
    </symbol>

    <symbol width="64" height="64" viewBox="0 0 64 64" id="star">
        <path d="M23.8889 23.9557C22.7778 23.1557 21.9667 22.5668 21.1556 21.9891C17.8889 19.6446 14.6 17.3113 11.3556 14.9335C10.5778 14.3668 9.84449 13.6668 9.30005 12.8891C8.98893 12.4224 8.88893 11.5891 9.10005 11.1002C9.22227 10.8113 10.2223 10.6557 10.7 10.8224C11.8667 11.2113 13 11.7446 14.0667 12.3557C17.3889 14.2779 20.6778 16.2668 24.1112 18.3113C24.4223 16.2668 24.6889 14.2335 25.0667 12.2224C25.3556 10.6668 25.7556 9.11128 26.1889 7.58906C26.4667 6.60017 27.0556 5.74462 28.2445 5.91128C29.4778 6.07795 29.8778 7.05573 29.8556 8.15573C29.8112 11.4335 29.7 14.7002 29.6334 17.978C29.6112 18.7557 29.6334 19.5335 29.6334 20.3113C29.7556 20.4224 30.8 19.4891 31.2889 19.0113C35.4667 14.9224 39.6445 10.8557 43.8667 6.81128C44.4556 6.24462 45.2 5.76684 45.9556 5.45573C46.3556 5.28906 47.1112 5.41128 47.3778 5.70017C47.6445 5.98906 47.7 6.74462 47.5112 7.13351C47.1556 7.87795 46.6223 8.55573 46.0556 9.16684C42.3334 13.2557 38.5889 17.3224 34.8556 21.4002C34.4445 21.8446 34.0334 22.3113 33.4223 22.9891C36.2223 22.7891 38.7445 22.5668 41.2667 22.4335C46.3445 22.178 51.4334 21.9668 56.5112 21.7446C56.8223 21.7335 57.1556 21.7335 57.4223 21.7891C59.1667 22.1557 59.0112 23.9002 57.7001 24.1224C56.1 24.4002 54.4889 24.7446 52.8667 24.9113C47.0556 25.4891 41.2445 26.0002 35.4334 26.5446C35.3112 26.5557 35.2 26.6002 34.8334 26.7002C36.4334 27.9557 37.9112 29.1113 39.3889 30.2557C42.1778 32.4335 45 34.5779 47.7445 36.8002C48.4778 37.4002 49.1223 38.1891 49.5889 39.0113C50.0889 39.878 49.5667 40.6224 48.6112 40.3891C47.4445 40.0891 46.2445 39.6113 45.2556 38.9335C40.4334 35.6446 35.6778 32.2557 30.9 28.9002C30.3667 28.5224 29.8334 28.1446 29.0556 27.5779C28.8889 30.1002 28.7556 32.3668 28.5778 34.6335C28.0445 41.3779 27.5112 48.1224 26.9556 54.8668C26.8889 55.6113 26.7445 56.3668 26.5223 57.078C26.2223 58.0557 25.5556 58.7002 24.4778 58.6224C23.4667 58.5446 22.8778 57.8668 22.7 56.9113C22.5334 56.0002 22.4445 55.0668 22.4556 54.1446C22.5223 48.1224 22.6223 42.1113 22.7112 36.0891C22.7223 35.6446 22.7112 35.2113 22.7112 34.4446C22.2 34.9335 21.8445 35.2557 21.5 35.6002C17.6556 39.4446 13.8112 43.3002 9.9556 47.1446C9.52227 47.578 9.03338 48.0113 8.47782 48.2557C8.10005 48.4224 7.43338 48.4113 7.14449 48.178C6.8556 47.9446 6.78894 47.2891 6.78894 46.9002C6.80005 45.678 7.4556 45.1335 8.03338 44.4335C11.4334 40.3113 14.8889 36.2224 18.3667 32.1557C19.6223 30.6891 20.9889 29.3224 22.6 27.6113C19.5889 27.9557 16.9778 28.2891 14.3667 28.5335C11.8556 28.7668 9.34449 28.9113 6.82227 29.0891C6.5556 29.1113 6.27782 29.0668 6.03338 29.0335C4.7556 28.8779 5.47782 27.5224 5.84449 27.4335C8.36671 26.8113 10.9112 26.2113 13.4667 25.7446C16.5 25.2224 23.2 24.1891 23.8889 23.9557Z" fill="black" />
    </symbol>

    <symbol width="64" height="64" viewBox="0 0 64 64" id="face-1">
        <path d="M11.1111 36.6555C10.7333 36.1888 9.76664 37.4666 9.06664 36.8555C8.36664 36.2555 9.3333 35.4222 9.7333 34.8999C10.4222 33.9888 11.2555 33.1666 12.1444 32.4666C12.4889 32.1888 13.2889 31.7777 13.6889 32.2888C13.9444 32.6111 14.0111 32.8999 13.6 33.6777C13.3777 34.0888 13.2666 34.3111 12.6777 35.0222C12.6777 35.2444 13.0111 35.4888 13.2666 35.7111C18.6111 40.3666 24.6444 43.5222 31.8555 43.8666C39.0666 44.2222 45.2666 41.9888 49.9777 36.2999C50.4 35.7999 50.9777 35.3333 51.0555 34.7555C51.1111 34.3222 50.9222 34.0999 50.3333 33.2777C50.1444 33.0222 50.0555 32.3999 50.4 32.0111C50.9666 31.3444 51.5777 31.6888 51.7889 31.8888C53.2222 33.2888 54.3333 34.9333 55.1444 36.4111C55.3 36.8999 55.0444 37.2999 54.7889 37.5444C54.5777 37.7444 54.0222 37.7222 53.6889 37.5999C53.3 37.4555 52.9777 37.1111 52.4666 36.7333C47.3111 43.4888 40.3444 46.711 31.9 46.3999C23.5889 46.1222 16.3111 42.5777 11.1111 36.6555Z" fill="black" />
        <path d="M41.3112 24.4442C41.2779 21.522 43.3445 19.1664 45.9223 19.1775C48.1667 19.1886 50.1667 21.4775 50.189 24.0664C50.2001 26.522 48.0223 28.7998 45.6112 28.8331C43.1779 28.8553 41.3334 26.9775 41.3112 24.4442ZM43.4556 24.1331C43.4779 25.5331 44.4334 26.5442 45.7334 26.522C46.8667 26.4998 47.9556 25.3886 47.9001 24.2775C47.8445 22.9109 47.1223 21.4998 45.3667 21.6998C44.3667 21.8109 43.4334 22.5109 43.4556 24.1331Z" fill="#CD4631" />
        <path d="M21.5222 22.1999C21.5 24.7999 19.3777 26.9999 16.8666 27.011C14.4777 27.0221 12.5777 24.911 12.6888 22.1888C12.8111 18.8443 14.6666 17.811 17.3888 17.5665C19.5222 17.3776 21.5333 19.7999 21.5222 22.1999ZM14.7777 21.9665C14.7666 23.611 15.6555 24.8443 16.8444 24.8554C18.1666 24.8665 19.3999 23.5776 19.3999 22.1665C19.3999 20.8665 18.2222 19.6221 17.0222 19.6554C15.5 19.6999 14.7777 20.4443 14.7777 21.9665Z" fill="#81ADC8" />
    </symbol>

    <symbol width="64" height="64" viewBox="0 0 64 64" id="face-5">
        <path d="M9.21106 22.1112C12.2 18.6001 15.4777 15.2446 19.1 12.389C21.6222 10.4001 22.4888 10.3001 23.8777 9.92235C24.2555 9.82235 24.5888 9.58901 24.9111 9.35568C38.4333 -0.188765 55.6666 6.5779 59 23.4223C61.2111 34.6001 55.5111 45.7001 45.7111 50.2335C45.5555 50.3112 45.3222 50.3335 45.2444 50.4557C43.3 53.5001 39.3444 54.6779 36.9333 55.2779C36.4444 55.4557 36.0666 55.9668 35.6222 56.3001C35.2777 56.5557 34.9333 56.8335 34.5444 57.0112C21.8 62.9224 8.09995 55.0112 5.09995 41.9223C4.67773 40.0779 2.82217 28.9446 9.21106 22.1112ZM35.7555 49.5224C40.3 49.5001 43.2666 48.7557 45.9222 47.3001C58.7 40.289 60.6111 21.2446 49.3666 11.9446C42.9222 6.62235 34.6777 5.72235 27.4333 10.8223C18.8222 16.8779 15.7 29.289 20.5222 38.6668C23.9888 45.4112 29.4888 49.1335 35.7555 49.5224ZM40.1 52.4001C40.6555 52.2001 40.7333 52.0557 40.6444 51.989C40.6444 51.989 40.4111 51.989 40.0222 52.0001C30.0222 52.7557 22.5 48.7779 18.0444 39.8112C13.6888 31.0557 14.7444 22.4557 19.8888 14.2223C19.4777 14.4223 19.1444 14.6668 18.8444 14.9446C11.9111 21.2223 9.86662 31.8557 13.8666 40.9446C17.5555 49.3335 25.3 54.3112 34.0111 53.689C36.0555 53.5446 38.0666 52.8446 40.1 52.4001ZM10.7333 23.5779C10.7444 23.2557 10.4444 23.6557 10.4 23.7112C10.2444 23.9223 10.0888 24.1446 9.95551 24.3668C8.12218 27.4557 6.97773 30.8001 6.82218 34.389C6.45551 42.5668 9.32217 49.3446 16.2444 53.9668C20.8444 57.0446 25.9555 57.6779 31.3 56.0112C23.4888 55.2223 17.4 51.6001 13.2888 44.9112C9.17773 38.2446 8.52218 31.089 10.7333 23.5779Z" fill="black" />
        <path d="M44.2 30.7C45.7333 30.7556 46.2333 31.5556 45.7333 33C44.4889 36.5556 40.9889 38.2889 37.4222 37.0445C35.3111 36.3 33.6555 34.9445 32.5111 33.0112C31.6333 31.5223 32.0222 30.6667 33.7444 30.5556C35.5444 30.4334 42.5222 30.6334 44.2 30.7ZM43.8555 32.4334C40.7889 32.4334 37.8 32.4334 34.7778 32.4334C37.8444 36 42.3778 36.0667 43.8555 32.4334Z" fill="black" />
        <path d="M31.6997 24.4005C31.7109 26.1338 30.0442 27.7116 28.222 27.7005C26.6331 27.6894 25.522 26.256 25.5109 24.7338C25.4886 23.2116 27.0442 21.7116 28.7553 21.6671C30.3997 21.6116 31.6997 22.8116 31.6997 24.4005ZM28.3664 23.3005C27.5442 23.4338 27.2886 24.2116 27.3553 24.8005C27.4442 25.656 28.0886 25.8671 28.4886 25.8782C28.8664 25.8894 29.6109 25.5116 29.7664 24.7782C29.9664 24.0338 29.5442 23.0227 28.3664 23.3005Z" fill="#CD4631" />
        <path d="M52.9331 24.8669C52.9109 26.5447 51.722 27.778 50.1331 27.7669C48.422 27.7558 47.1887 26.3669 47.2442 24.5114C47.2887 22.9002 48.4887 21.6558 49.9776 21.6891C51.522 21.7336 52.9553 23.2669 52.9331 24.8669ZM51.3998 24.8225C51.3998 23.9669 50.9442 23.3891 50.2331 23.3891C49.7998 23.3891 49.0665 23.7225 49.0665 24.6336C49.0665 26.2225 50.2331 26.1336 50.2331 26.1336C50.8553 26.1114 51.3998 25.8558 51.3998 24.8225Z" fill="#81ADC8" />
    </symbol>

    <symbol width="64" height="68" viewBox="0 0 64 68" id="scribble-vertical">
        <path d="M23.04 2C23.0401 52.6667 35.2813 37.7521 37.044 34.381C52.1834 5.42857 18.1193 21.4286 24.1754 66" stroke="black" stroke-width="2.5" stroke-linecap="round" />
    </symbol>

    <symbol width="64" height="64" viewBox="0 0 64 64" id="scribble-sun">
        <path d="M50.2668 27.9442C48.9224 28.7109 47.8002 29.3887 46.6446 29.9998C44.689 31.0442 42.7113 31.9887 40.4335 32.1442C38.1224 32.2998 36.3113 31.422 35.2224 29.4331C34.5557 28.2109 34.2224 26.8109 33.789 25.4776C33.6224 24.9554 33.6002 24.3776 33.4668 23.5665C32.8002 24.5887 32.289 25.3998 31.7446 26.1887C30.4224 28.122 29.1779 30.1109 27.7335 31.9442C25.7668 34.4665 23.289 34.6776 20.8224 32.6109C19.8557 31.7998 19.0779 30.7442 18.2224 29.7887C17.9668 29.4998 17.7557 29.1776 17.4779 28.8109C16.9779 30.9776 16.5335 33.0442 16.0113 35.0776C14.7891 39.822 10.9891 39.6554 8.28905 37.5776C7.56683 37.022 6.96683 36.2776 6.37794 35.5665C6.00016 35.0776 5.92238 34.4442 6.46683 34.0331C6.95572 33.6554 7.46683 33.922 7.88905 34.322C8.31127 34.7109 8.71127 35.1331 9.16683 35.4665C9.70016 35.8554 10.2446 36.2442 10.8446 36.522C12.5335 37.2998 13.6668 36.8998 14.3557 35.1665C14.8446 33.9442 15.1557 32.6442 15.4779 31.3665C15.7779 30.1776 16.0224 28.9665 16.2668 27.7554C16.4002 27.1331 16.5557 26.5109 17.2335 26.2998C18.0113 26.0554 18.4779 26.5998 18.9113 27.0998C19.4668 27.7331 19.9224 28.4442 20.5113 29.0442C21.2446 29.8109 22.0002 30.5665 22.8335 31.1998C23.9668 32.0554 24.789 32.0109 25.789 30.9998C26.7446 30.0331 27.6668 28.9887 28.4557 27.8776C30.1335 25.4887 31.7224 23.0554 33.3113 20.6109C33.689 20.0331 34.1002 19.6331 34.8002 19.7665C35.4668 19.8887 35.6779 20.4331 35.7668 21.0442C35.9224 22.1331 36.0335 23.2442 36.2446 24.322C36.4335 25.2665 36.6446 26.2331 37.0002 27.122C37.9446 29.4998 39.4113 30.2554 41.9224 29.822C43.8113 29.4998 45.5779 28.822 47.2557 27.922C48.4668 27.2776 49.6335 26.5554 50.8113 25.8665C51.4335 25.4998 52.0779 25.122 52.7668 25.6665C53.4113 26.1887 53.3002 26.922 53.1557 27.6331C53.089 27.9331 52.9779 28.222 52.8779 28.5109C52.6668 29.0887 52.489 29.6887 52.2224 30.2442C50.2668 34.3887 51.6335 37.7998 54.5779 40.822C55.1224 41.3776 55.8446 41.7665 56.5002 42.2109C56.8224 42.4331 57.2224 42.5665 57.5113 42.822C57.7224 42.9998 57.9557 43.3554 57.9002 43.5665C57.8446 43.7998 57.489 44.022 57.2557 44.1331C56.7446 44.3665 56.0557 44.2998 55.5668 44.0998C54.6002 43.6998 53.6224 43.222 52.8224 42.5665C51.0446 41.122 49.8113 39.2331 48.9113 37.122C48.1446 35.322 48.2446 33.4887 48.8335 31.6776C49.2335 30.4998 49.7224 29.3665 50.2668 27.9442Z" fill="black" />
    </symbol>

    <symbol width="64" height="64" viewBox="0 0 64 64" id="sparkle">
        <path d="M31.0778 31.5441C31.2111 31.0107 31.2889 30.5774 31.4333 30.1552C32.8778 25.8885 35.2 22.0885 37.8444 18.4774C38.1555 18.0552 38.5444 17.6552 38.9778 17.3885C39.2111 17.2441 39.6778 17.2663 39.9444 17.4107C40.1444 17.5218 40.2889 17.9552 40.2444 18.1996C40.1667 18.6663 40 19.1441 39.7667 19.5663C38.2333 22.3552 36.6889 25.133 35.1222 27.8996C34.5333 28.933 33.9111 29.9552 33.3 30.9774C33.1 31.3218 32.8778 31.6552 32.6444 31.9663C32.3889 32.3218 32 32.533 31.6111 32.2996C31.3555 32.1441 31.0778 32.033 31.0778 31.5441Z" fill="#CD4631" />
        <path d="M46.8111 48.0889C46.2778 48 45.6556 47.9333 45.0556 47.8C42.6889 47.2666 40.3222 46.7333 37.9667 46.1778C37.4556 46.0555 36.9556 45.8444 36.5 45.6C35.8889 45.2778 35.6778 44.8222 35.7778 44.3222C35.8778 43.8222 36.2778 43.5111 36.9778 43.5C37.4556 43.4889 37.9667 43.5 38.4222 43.6111C41.4111 44.3666 44.4 45.1444 47.3778 45.9333C47.7111 46.0222 48.0556 46.1777 48.3111 46.4C48.9556 46.9444 48.7556 47.8 47.9333 48.0111C47.6111 48.0889 47.2444 48.0555 46.8111 48.0889Z" fill="#CD4631" />
        <path d="M15.589 18.2998C15.6335 17.7776 15.7446 17.2553 15.8779 16.7442C16.0001 16.2887 16.3112 15.9665 16.8112 15.922C17.2335 15.8887 17.689 16.3109 17.7557 16.8665C17.8446 17.6109 17.9224 18.3665 17.889 19.1109C17.789 21.3553 17.6446 23.6109 17.489 25.8553C17.4335 26.5998 17.3335 27.3442 17.2112 28.0887C17.1668 28.3442 17.0779 28.6109 16.9335 28.8109C16.5446 29.3776 15.8335 29.3331 15.5557 28.722C15.4001 28.3776 15.3335 27.9553 15.3335 27.5776C15.2779 26.3331 15.4446 20.1442 15.589 18.2998Z" fill="#CD4631" />
    </symbol>

    <symbol width="64" height="64" viewBox="0 0 64 64" id="star-big">
        <g clip-path="url(#clip0_301_11186)">
            <path d="M29.2576 4.29483C29.7878 2.11128 32.9604 2.32666 33.1906 4.56184L34.5884 18.1355C34.7443 19.6492 36.4665 20.4413 37.7172 19.5744L51.8175 9.80119C53.5936 8.57018 55.7892 10.6401 54.6648 12.4856L47.8371 23.692C47.1324 24.8486 47.757 26.3566 49.0731 26.6761L64.6164 30.4501C66.5363 30.9162 66.6897 33.5875 64.8358 34.2704L48.7802 40.1838C47.5402 40.6405 47.0761 42.1528 47.8464 43.2265L53.8441 51.5863C55.1143 53.3567 53.0393 55.5938 51.1785 54.4601L40.308 47.8371C39.1513 47.1324 37.6434 47.757 37.3239 49.0731L34.6283 60.1751C34.102 62.3426 30.9591 62.1521 30.6985 59.9369L28.7715 43.5574C28.5866 41.9865 26.7376 41.2416 25.5154 42.2458L15.0112 50.8769C13.2297 52.3407 10.7943 50.1256 12.0832 48.2137L21.8859 33.6721C22.8086 32.3034 21.7696 30.4693 20.1213 30.557L11.2476 31.0291C8.86029 31.1561 8.30229 27.7454 10.6056 27.105L18.1633 25.0037C19.5696 24.6128 20.0969 22.8958 19.1526 21.7829L12.4416 13.8735C10.9724 12.1419 13.0679 9.69002 15.0072 10.8716L23.692 16.1629C24.8486 16.8676 26.3566 16.243 26.6761 14.9269L29.2576 4.29483Z" fill="black" />
        </g>
        <defs>
            <clipPath id="clip0_301_11186">
                <rect width="64" height="64" fill="white" />
            </clipPath>
        </defs>
    </symbol>

    <symbol width="275" height="275" viewBox="0 0 275 275" fill="none" id="thinking">
        <path d="M56.8516 209.033C50.4038 200.295 43.9872 212.047 46.928 218.841C48.1017 221.552 48.215 224.819 51.3326 225.733C52.2975 226.016 53.1586 227.177 54.2248 227.177C56.0228 227.177 56.6913 226.742 58.2844 226.196" stroke="#4D4D4D" stroke-width="3" stroke-linecap="round" stroke-linejoin="round"/>
        <path d="M59.2395 227.667C60.55 234.563 61.0589 242.112 64.387 248.263C66.9056 252.918 72.0638 257.418 77.362 258.098C80.8065 258.54 83.6386 259.507 87.2059 258.67C89.9449 258.027 92.453 256.889 95.1129 256.109C97.3148 255.463 99.2219 253.887 100.791 252.186C102.796 250.013 103.612 247.175 105.196 244.939C106.268 243.426 106.522 240.035 106.522 238.183C106.522 235.706 107 233.471 107 230.991C107 225.639 105.09 220.46 105.09 215.163C105.09 213.613 104.222 212.132 104.134 210.504C104.019 208.374 103.53 205.554 103.153 203.421C102.804 201.453 102.224 199.409 102.224 197.373C102.224 194.018 100.953 197.375 99.3583 196.283" stroke="#4D4D4D" stroke-width="3" stroke-linecap="round" stroke-linejoin="round"/>
        <path d="M52.5529 202.168C51.3841 197.818 52.2183 193.245 50.4037 189.146C49.3021 186.658 50.5798 182.879 51.0139 180.428C51.3268 178.661 51.1201 176.746 51.1201 174.952C51.1201 173.399 52.3023 172.524 52.5264 171.029C52.7425 169.587 51.9358 168.124 50.6425 167.46C49.3975 166.821 49.9682 167.23 50.8547 166.371C51.3523 165.888 53.2396 165.038 53.004 164.191C52.8426 163.611 52.1012 163.87 54.0388 163.428C55.6468 163.061 57.6727 161.467 59.2394 161.467C60.9004 161.467 61.9203 161.115 63.6439 160.486C65.515 159.803 66.3823 161.617 67.624 161.385C69.0925 161.111 70.1834 159.069 71.8694 159.069C72.0513 159.069 72.8078 159.963 73.6736 159.996C74.995 160.046 76.5381 160.938 77.866 160.377C78.7503 160.003 78.0037 161.689 79.06 161.93C81.4136 162.467 83.7021 160.061 85.7464 159.287C87.7116 158.544 86.8776 159.35 86.3567 160.486C86.0289 161.201 90.3085 161.204 91.1328 161.358C93.3487 161.772 92.2865 161.634 91.0266 162.693C89.3426 164.107 91.7938 164.409 92.937 164.409C95.2355 164.409 94.6476 164.242 94.5821 165.989C94.5126 167.846 94.9044 167.682 96.0149 168.822C96.7604 169.588 96.8282 170.807 97.6866 171.492C98.5084 172.149 100.314 170.782 99.7827 172.555C99.2609 174.296 98.0385 175.763 97.5539 177.54C97.2388 178.696 99.7403 178.532 100.313 179.12C101.835 180.682 100.197 181.251 99.8623 182.798C99.6042 183.991 100.512 184.369 100.764 185.277C101.06 186.339 99.3632 186.825 99.9419 187.947C100.572 189.169 100.794 188.923 99.8358 190.399" stroke="#4D4D4D" stroke-width="3" stroke-linecap="round" stroke-linejoin="round"/>
        <path d="M47.7771 167.351C46.7133 167.991 43.008 169.916 45.8666 171.383C47.0619 171.997 45.5971 171.174 45.8932 173.454C46.2431 176.148 47.0518 175.832 45.1502 178.385C43.6191 180.441 45.0756 181.337 44.0624 183.534C43.4867 184.781 43.0528 186.456 43.001 187.838C42.9203 189.992 47.6822 190.897 46.53 192.606C46.0302 193.347 44.5773 194.388 44.6461 195.412C44.7563 197.052 47.4034 198.698 48.4404 199.716C48.9499 200.216 50.42 201.542 49.5813 202.168C48.6296 202.879 49.583 202.808 50.059 203.639C50.452 204.325 51.3856 205.601 51.3856 205.601C51.3856 205.601 50.9319 202.082 50.3508 200.424C49.8331 198.948 48.97 197.907 47.9893 196.774C47.6032 196.328 48.7246 195.825 48.9976 195.493C50.9253 193.154 51.545 186.912 48.2547 185.223C47.6611 184.918 48.4473 186.711 48.9711 187.13C49.9521 187.913 50.1019 183.707 50.059 183.316C49.7984 180.942 48.9733 179.368 47.3525 177.704C46.2449 176.566 46.6131 176.794 47.8036 176.641C49.3177 176.447 51.1085 174.834 49.4487 173.508C48.2856 172.579 49.9526 176.941 50.6427 177.649" stroke="#4D4D4D" stroke-width="3" stroke-linecap="round" stroke-linejoin="round"/>
        <path d="M55.8963 205.11C56.5829 206.012 57.6967 206.748 58.2844 207.671C58.8237 208.518 58.8 209.602 59.2396 210.504C60.3496 212.784 61.15 208.977 61.15 207.943C61.15 207.053 60.2591 203.403 59.3457 205.982C59.1412 206.559 59.708 204.934 59.7172 204.511C59.7506 202.966 59.7121 201.416 59.2396 199.934C58.4886 197.578 56.6468 194.82 54.9411 193.069C54.5133 192.629 55.7841 194.075 56.3739 194.213C57.6952 194.523 58.2618 193.59 58.2844 192.36C58.3002 191.5 56.4126 184.456 54.5697 186.585C54.4824 186.686 57.8068 188.124 57.8068 185.25C57.8068 184.058 55.63 182.507 57.8068 183.997C59.9207 185.444 62.4885 184.041 63.7238 182.09C65.3058 179.591 62.2335 179.198 64.7586 181.79C67.0406 184.133 70.5214 182.631 72.3206 180.373C72.7824 179.794 74.5718 182.104 76.4334 181.763C77.4327 181.58 80.9571 178.919 81.687 179.856C83.9252 182.728 88.7194 182.181 91.7167 182.063C92.8693 182.017 97.9064 178.481 96.0152 177.268C94.8343 176.51 94.5673 180.033 96.4928 178.521C99.1346 176.447 97.5741 173.699 95.5376 172.146C93.4796 170.576 95.8101 171.735 95.4314 169.694C94.9446 167.07 91.8559 163.4 88.9572 165.226C85.1346 167.635 90.5492 170.111 90.5492 167.133C90.5492 163.177 83.2999 161.557 80.5726 163.047C77.8499 164.534 81.7834 164.727 80.3869 164.137C78.6062 163.384 76.5135 163.081 74.6025 162.965C73.8338 162.919 72.3336 163.249 71.6838 162.693C70.7006 161.852 68.3315 161.126 67.0935 160.731C62.8253 159.371 63.3364 163.235 64.9443 166.262C66.4844 169.161 59.9987 167.343 58.7885 167.161C55.5451 166.671 53.6202 171.22 57.0373 171.22C58.3062 171.22 57.3297 170.682 56.772 170.539C54.9804 170.079 53.3986 170.805 52.102 172.092C49.1433 175.028 50.3478 181.451 55.3126 179.829C57.0179 179.272 54.9788 178.249 54.1451 178.249C51.5935 178.249 48.4683 179.859 47.6179 182.444C46.0438 187.228 57.8875 181.128 59.2396 179.992C60.1397 179.236 61.104 178.455 59.9825 177.54C59.1007 176.821 56.4154 175.143 57.5414 175.143C58.1756 175.143 60.7879 177.581 61.6276 177.922C63.0051 178.481 65.4157 179.172 66.669 177.922C69.5877 175.01 63.8814 173.659 64.1218 174.326C65.925 179.325 74.7895 176.355 77.5478 174.326C78.6171 173.539 78.7235 172.231 77.1763 173.072C75.4956 173.986 74.115 176.16 74.8413 178.14C76.5578 182.817 87.0197 180.462 87.7897 176.015C88.0273 174.642 85.5535 174.022 84.6588 174.543C82.3666 175.881 84.3606 178.436 86.1447 178.766C90.8103 179.628 98.9142 174.072 91.6902 170.893C90.1249 170.204 87.2088 169.826 86.0916 171.547C84.7239 173.653 88.8264 173.556 89.7798 173.372C98.0994 171.77 88.3203 167.061 85.7997 165.635C83.7744 164.489 78.6466 161.106 80.4399 166.262C80.6686 166.919 79.2716 164.926 79.0337 164.682C77.6469 163.258 75.6803 162.199 73.78 161.794C71.5336 161.315 68.7161 161.321 67.0139 163.156C65.8947 164.363 67.2468 164.773 68.3141 164.872C68.6755 164.906 70.8537 164.983 69.8796 164.137C68.444 162.889 66.2806 162.898 64.5198 162.693C63.2294 162.542 60.3081 162.118 59.8498 164C59.3744 165.953 61.175 169.111 62.6889 170.185C64.3131 171.336 62.9295 170.297 61.9991 169.912C60.5309 169.304 58.1852 168.521 56.5862 168.931C54.6897 169.418 58.9111 171.107 59.1334 171.165C62.3479 172.007 66.1328 171.433 69.2162 170.294C69.9603 170.019 73.0871 168.518 72.0288 167.242C71.6189 166.748 70.2877 165.913 69.853 166.861C68.7604 169.245 76.8869 168.126 77.76 167.569C78.651 167.001 74.231 165.627 74.8413 168.822C75.5011 172.277 81.0581 172.347 83.0137 170.185C84.9877 168.002 81.1947 167.722 82.3769 169.694C83.7206 171.936 84.7729 169.384 81.3686 168.577C76.2829 167.372 73.0198 169.55 68.1549 170.239C64.8313 170.71 65.1143 172.175 63.0604 174.435C61.046 176.651 59.0941 175.688 56.8781 176.968C54.7131 178.218 56.1305 183.817 55.8698 185.958C55.6196 188.014 51.6444 186.439 50.9611 189.445C50.5544 191.235 51.7611 193.131 53.0572 194.24C53.6551 194.752 55.7035 195.097 56.029 195.766C56.4682 196.668 54.0425 195.629 53.0838 195.848C51.8125 196.138 52.0634 197.99 52.3408 198.926C53.1455 201.641 54.9515 203.703 55.4187 206.581" stroke="#4D4D4D" stroke-width="3" stroke-linecap="round" stroke-linejoin="round"/>
        <path d="M56.3739 219.821C55.3983 218.444 54.8764 217.667 54.9411 216.007C54.9832 214.926 55.589 215.529 54.7288 214.645C54.0761 213.975 52.5809 213.88 52.0754 214.918" stroke="#4D4D4D" stroke-width="3" stroke-linecap="round" stroke-linejoin="round"/>
        <path d="M69.7468 203.149C71.2731 201.143 73.03 200.512 75.372 199.825C76.6363 199.454 79.0107 199.615 78.8213 199.226" stroke="#4D4D4D" stroke-width="3" stroke-linecap="round" stroke-linejoin="round"/>
        <path d="M93.1494 198.245C95.0785 197.858 97.2725 197.176 98.8807 198.735C99.4517 199.289 102.436 200.697 100.791 200.697" stroke="#4D4D4D" stroke-width="3" stroke-linecap="round" stroke-linejoin="round"/>
        <path d="M77.8662 209.524C77.8662 209.524 77.8663 209.524 77.8663 209.524" stroke="#4D4D4D" stroke-width="3" stroke-linecap="round" stroke-linejoin="round"/>
        <path d="M96.4927 209.033C96.4927 209.033 96.4927 209.033 96.4928 209.033" stroke="#4D4D4D" stroke-width="3" stroke-linecap="round" stroke-linejoin="round"/>
        <path d="M88.3733 205.601C88.3733 211.653 92.5911 217.447 94.1311 222.982C94.7867 225.337 93.9386 225.706 91.4777 225.706C89.0818 225.706 87.8579 225.519 86.4629 227.667" stroke="#4D4D4D" stroke-width="3" stroke-linecap="round" stroke-linejoin="round"/>
        <path d="M164.045 148.776C160.906 146.507 158.959 146.813 156.096 149.464C153.422 151.941 152.56 156.534 154.964 159.485C158.693 164.063 167.123 162.68 169.889 157.876C171.231 155.545 170.821 157.36 171.705 158.075C173.905 159.855 175.037 159.987 177.247 157.892C179.904 155.373 182.063 145.216 175.51 146.556C174.782 146.706 172.443 148.325 173.544 148.1C175.001 147.802 174.97 146.008 174.609 144.877C173.644 141.861 169.425 140.39 166.768 141.511C164.783 142.348 164.279 144.785 162.682 145.707C161.139 146.598 155.02 151.816 159.759 151.251" stroke="#4D4D4D" stroke-width="2.5" stroke-linecap="round" stroke-linejoin="round"/>
        <path d="M125.943 162.99C123.52 162.517 120.666 161.811 120.054 165.101C119.599 167.547 122.099 170.621 124.693 170.212C125.597 170.069 128.576 168.679 129.165 169.268C130.644 170.747 131.536 169.041 132.443 167.601C133.502 165.919 131.899 160.508 129.693 160.018C128.291 159.706 122.764 163.65 123.443 163.99" stroke="#4D4D4D" stroke-width="2.5" stroke-linecap="round" stroke-linejoin="round"/>
        <path d="M166.045 70.166C168.786 66.6064 173.724 62.8818 178.553 63.1505C180.704 63.2702 181.756 68.1132 182.445 69.6648C184.887 75.1683 172.586 75.8853 175.051 81.4407C175.519 82.4952 176.922 82.8937 177.831 83.473C179.76 84.7024 180.054 84.1227 180.054 82.1924C180.054 80.6983 176.816 76.8127 178.553 75.7894C183.267 73.0126 182.251 65.656 176.302 65.656C171.729 65.656 165.044 66.4967 165.044 72.4209C165.044 75.3733 167.54 74.5044 168.769 72.922C170.252 71.0117 171.307 68.6626 174.05 68.6626C175.976 68.6626 179.75 67.918 180.054 70.6671C180.106 71.1334 181.112 73.3462 180.944 73.5623C180.248 74.4582 179.552 75.8087 179.054 76.9308C178.219 78.812 175.551 78.5636 175.551 80.9396C175.551 82.5265 175.637 82.8007 176.552 83.9462C176.855 84.3252 178.623 85.3374 178.053 84.1968" stroke="#CD4631" stroke-width="3" stroke-linecap="round" stroke-linejoin="round"/>
        <path d="M181.557 91.2122C181.661 95.3806 183.699 92.8282 182.168 91.6019C181.155 90.7899 180.871 93.0126 182.057 93.6063C183.389 94.2733 183.081 90.9103 182.668 91.3235C181.595 92.3983 183.873 95.3 181.557 94.7199" stroke="#CD4631" stroke-width="3" stroke-linecap="round" stroke-linejoin="round"/>
        <path d="M155.195 26.2355C148.679 17.908 137.317 20.4846 130.307 26.9844C123.481 33.3136 119.286 49.1851 125.58 57.067C127.331 59.2593 128.873 61.6949 130.937 63.6002C131.674 64.28 129.046 64.3051 128.055 64.4522C124.989 64.9075 123.479 68.2226 124.316 71.0761C124.756 72.573 125.984 73.6018 127.466 73.937C128.488 74.1683 128.712 74.5295 127.537 74.6471C124.78 74.923 122.819 75.0708 120.929 77.3831C118.14 80.7966 119.4 83.7445 122.705 85.9653C126.047 88.2102 125.429 89.2 122.319 91.0754C119.854 92.5615 118.929 95.5772 118.076 98.2877C116.6 102.976 114.498 110.043 118.65 113.803C123.849 118.512 131.631 118.694 138.097 117.492C140.246 117.093 142.803 116.91 144.482 115.342C144.935 114.919 146.165 113.401 144.875 113.126C142.574 112.634 141.74 116.759 141.62 118.19C140.771 128.328 155.907 131.789 163.208 130.527C167.951 129.707 172.1 127.417 175.825 124.449C178.757 122.113 182.882 119.522 184.824 116.197C185.762 114.593 185.419 116.464 185.969 117.927C187.284 121.425 191.079 120.755 193.94 119.895C197.806 118.733 201.27 116.248 203.605 112.934C203.947 112.449 205.676 109.238 205.966 109.676C209.514 115.025 211.638 107.499 214.673 105.679C215.181 105.375 216.131 108.833 216.424 109.397C218.64 113.66 220.951 117.489 225.949 118.741C236.648 121.42 247.852 116.884 255.253 109.174C258.37 105.927 260.091 101.438 256.144 97.8407C255.19 96.9704 258.2 97.9782 258.763 97.9372C261.856 97.712 266.336 97.3228 268.589 94.9048C271.156 92.1489 272.539 89.7051 271.523 85.8512C270.813 83.1557 269.254 81.5544 266.698 80.5454C265.573 80.1015 263.309 80.019 264.956 78.978C266.608 77.9333 267.375 75.2996 267.525 73.4445C267.76 70.5165 265.75 68.5222 263.15 67.5301C261.978 67.0827 258.374 67.547 258.977 67.4867C260.983 67.2859 262.086 59.4204 261.937 57.9183C261.271 51.242 254.586 46.0399 247.804 46.4746C246.68 46.5466 245.529 47.2146 246.381 46.0535C247.358 44.7205 247.408 42.3304 247.8 40.7887C250.007 32.1055 246.441 24.7698 239.665 19.2163C234.088 14.6455 225.499 12.1316 218.787 15.2865C218.354 15.4903 215.536 18.7623 216.388 18.6771C217.688 18.547 217.272 15.4255 217.096 14.7386C216.268 11.5198 212.481 8.85163 209.718 7.43423C205.647 5.34589 199.757 6.06588 195.479 7.24559C191.709 8.28522 188.868 10.7445 186.923 14.0442C185.892 15.7927 186.766 17.2537 185.489 16.0831C183.419 14.1849 182.659 12.9412 179.422 13.2068C175.608 13.5197 172.129 14.5187 169.1 16.9037C167.549 18.1249 166.161 20.7754 166.364 22.8125C166.367 22.8437 165.937 20.8829 165.635 20.1192C164.004 16.0047 158.55 16.1445 155.655 19.0432C154.435 20.2643 153.738 22.1222 153.6 23.8337C153.528 24.7289 153.027 27.5779 152.78 25.0941" stroke="#4D4D4D" stroke-width="2.5" stroke-linecap="round" stroke-linejoin="round"/>
        <path d="M194.478 41.1041C193.743 36.9002 198.383 36.4356 201.706 35.592C204.343 34.9223 206.856 34.3653 209.378 35.8147C211.019 36.7578 213.327 39.1745 213.465 41.1041C213.977 48.2839 207.694 52.6294 200.788 52.6294C197.896 52.6294 198.006 57.8357 197.981 59.6449C197.94 62.5673 197.253 65.3929 197.591 68.3306C197.685 69.1389 198.164 73.5972 199.482 72.0889C201.665 69.5905 201.984 64.2766 201.984 61.1482C201.984 58.1692 201.152 55.5708 204.235 54.3833C206.963 53.3327 210.279 52.1259 212.102 49.6228C214.724 46.0252 215.237 41.0193 212.464 37.3737C210.12 34.293 203.564 34.1551 199.982 34.0887C195.287 34.0016 193.131 36.7058 190.753 40.603C189.329 42.9357 190.048 46.8624 193.477 46.0038C197.142 45.0862 199.692 42.9537 202.262 40.3803C203.637 39.0034 207.454 39.9456 208.989 40.7144C210.817 41.6294 209.727 44.7884 209.211 46.1151C207.15 51.4232 200.297 51.2463 198.592 56.0258C197.305 59.6364 197.48 63.3582 197.48 67.1335C197.48 68.2995 196.723 72.0641 198.981 71.0588C203.288 69.142 201.27 60.9917 201.483 57.1393C201.606 54.9319 204.52 54.6165 205.987 53.8822C207.761 52.9938 210.218 50.3901 211.102 48.6206C212.301 46.2194 212.52 42.5585 210.74 40.3803C208.522 37.6654 204.754 39.3283 202.484 37.5964C200.513 36.0921 196.369 41.2143 194.978 42.6074C194.431 43.1551 193.82 43.6356 193.227 44.1107C192.958 44.3264 192.173 45.8924 191.976 45.8924C191.359 45.8924 192.702 44.8666 193.199 44.5005C194.876 43.266 196.449 41.8572 197.675 40.1576C199.04 38.2651 201.251 39.0997 203.485 39.0997C204.768 39.0997 207.666 38.5425 208.739 39.3781C210.365 40.6443 210.957 41.7836 208.489 42.6074" stroke="#CD4631" stroke-width="3" stroke-linecap="round" stroke-linejoin="round"/>
        <path d="M199.982 80.19C192.685 81.8343 203.228 84.8246 201.872 80.5798C201.412 79.1393 199.353 79.6587 200.009 81.1922C200.298 81.8677 202.93 83.0116 200.482 82.1945" stroke="#CD4631" stroke-width="3" stroke-linecap="round" stroke-linejoin="round"/>
        <path d="M230.135 96.0496C233.569 96.0496 238.022 95.2481 241.36 96.2231C243.31 96.7926 244.342 98.0313 245.742 99.3455C247.4 100.902 249.383 102.978 249.137 105.434C248.838 108.431 244.978 109.905 242.572 110.708C239.139 111.854 234.573 111.643 231.001 111.107C228.186 110.684 223.204 109.796 222.098 106.596C221.199 103.997 223.138 102.606 225.354 101.982C228.782 101.017 232.37 100.259 235.886 99.7271C237.59 99.4692 241.461 98.3291 243.161 99.4843C243.874 99.9685 244.591 102.083 244.755 102.902C245.017 104.217 244.319 104.946 243.213 105.556C240.789 106.891 237.837 107.509 235.176 106.51C231.647 105.184 236.141 102.135 238.103 102C240.416 101.84 241.301 102.763 242.122 104.931C242.702 106.463 242.685 107.424 240.754 107.585C238.455 107.777 236.062 107.578 233.877 106.839C230.475 105.689 226.059 103.678 223.726 100.803C222.639 99.4629 222.652 97.6707 222.652 96.0496C222.652 93.3611 222.675 93.5789 225.736 93.5517C231.028 93.5045 236.308 93.2394 241.602 93.2394C243.26 93.2394 244.797 93.0703 246.279 93.9333C247.3 94.5274 247.339 94.782 247.284 95.9455C247.085 100.133 242.446 101.203 239.177 102.294" stroke="#4D4D4D" stroke-width="1.5" stroke-linecap="round"/>
        <path d="M137.533 57.6438C137.047 55.1502 135.485 52.8623 134.553 50.4623C133.743 48.3744 133.479 45.6642 133.479 43.4195C133.479 39.1271 134.082 34.4906 137.914 31.7277C140.849 29.6113 146.243 28.5856 149.138 31.4849C151.953 34.3039 151.526 38.7433 152.343 42.344C153.193 46.0918 151.313 51.9226 147.198 53.0816C145.858 53.4592 142.428 54.309 141.43 52.9255C139.983 50.9189 139.505 47.9065 138.849 45.5705C138.145 43.0613 135.657 37.0531 139.698 35.8389C144.717 34.331 146.815 42.6318 147.129 46.0215C147.313 48.0092 147.466 49.7621 146.124 51.3296C145.565 51.9829 143.125 53.7968 142.366 52.6133C141.311 50.9708 140.542 43.0892 142.833 42.9685C143.373 42.94 144.937 42.7335 145.258 43.2807C145.838 44.2668 145.133 45.8271 144.219 46.2297C142.423 47.0211 141.898 46.9071 141.898 44.998C141.898 43.2593 142.65 41.9432 144.635 42.795C145.612 43.2145 145.725 45.1348 145.882 45.9868C146.377 48.672 146.263 51.4224 146.263 54.1398C146.263 58.3361 143.128 60.6368 140.339 63.5764" stroke="#4D4D4D" stroke-width="1.5" stroke-linecap="round"/>
        <path d="M139.402 109.788C135.714 109.788 132.474 110.09 129.425 107.845C127.34 106.31 126.619 104.848 126.619 102.225C126.619 100.363 126.829 98.8648 128.178 97.4373C129.431 96.1108 130.573 96.0751 132.335 95.6679C132.985 95.5178 137.583 94.2519 138.085 95.4251C138.82 97.1409 137.845 100.068 136.907 101.531C135.868 103.153 134.951 104.749 133.166 105.66C132.769 105.862 129.79 107.003 129.737 106.041C129.637 104.241 129.896 102.898 130.984 101.427C131.638 100.543 134.106 100.998 135.037 101.045C138.409 101.219 136.904 109.614 133.235 105.798C132.448 104.979 132.323 103.343 132.889 102.398C134.951 98.9562 138.617 97.4681 142.208 96.3618" stroke="#4D4D4D" stroke-width="1.5" stroke-linecap="round"/>
        <path d="M250.713 65.4499C252.364 64.4415 253.831 63.1692 253.831 61.0785C253.831 59.7412 254.163 58.413 253.034 57.4877C252.205 56.8082 245.841 54.2721 245.725 56.7071C245.644 58.3991 245.725 60.1131 245.725 61.8071C245.725 63.6502 247.682 63.2869 249.085 63.2642C251.69 63.2221 252.01 61.2688 251.008 58.9275C250.468 57.6678 248.645 56.7818 247.942 58.7193C247.575 59.7304 252.62 58.8928 249.154 58.8928" stroke="#4D4D4D" stroke-width="1.5" stroke-linecap="round"/>
        <path d="M260.352 89.2707C261.04 89.2707 262.976 89.0344 263.207 90.0778C263.412 91.0013 263.078 91.5412 262.411 92.0605C260.95 93.1992 257.107 92.6457 257.965 90.1475C258.575 88.3701 260.375 87.1892 262.242 87.1186C262.692 87.1016 263.25 86.9619 263.486 87.3876C263.715 87.8 263.594 88.6155 263.396 89.0117C262.828 90.1511 261.762 91.1294 260.571 91.2833C258.903 91.4988 254.98 92.268 254.98 89.8087" stroke="#4D4D4D" stroke-width="1.5" stroke-linecap="round"/>
    </symbol>

    <symbol width="158" height="168" viewBox="0 0 158 168" id="lamp">
        <path d="M112.399 91.8605C111.899 88.2604 111.671 84.8992 110.934 81.3886C109.89 76.415 106.333 71.9434 103.87 67.5554C99.0521 58.9727 93.9986 49.274 84.8598 44.737C76.2108 40.4433 69.0087 42.13 60.3806 45.1895C55.0875 47.0665 51.4968 57.4715 49.9639 62.2548C47.454 70.0872 45.9668 76.6135 47.3598 84.9116C48.4241 91.2522 50.6115 100.804 54.977 105.823C57.0262 108.179 58.1796 110.108 60.8038 111.899C62.5559 113.095 64.5622 114.257 66.1098 115.713C68.991 118.423 73.3928 118.872 76.3637 121.822C78.9779 124.417 82.7561 125.367 83.6553 129.385C84.2268 131.938 85.5437 137.05 88.9613 137.239C97.4381 137.706 107.992 134.388 114.71 129.385C117.659 127.189 117.999 122.348 115.621 119.462C112.803 116.042 112.723 108.973 112.399 104.789C112.119 101.177 110.207 97.2459 111.943 93.6058C114.711 87.8047 115.372 81.079 114.45 74.6659C113.121 65.43 114.402 57.3716 108.004 49.6821C105.551 46.7338 102.563 43.9561 99.8337 41.2464C96.4202 37.8572 93.1026 34.3509 87.9197 34.2652C80.082 34.1355 70.5187 34.1666 64.4822 39.9536C61.8926 42.4361 58.2329 45.3849 57.0277 48.8418C54.8493 55.0904 55.733 61.1135 56.4418 67.5877C57.7931 79.9314 57.6995 95.0808 67.2816 104.595C69.9546 107.249 71.4045 103.134 71.8389 101.169C72.5534 97.9371 71.2972 94.4078 70.9275 91.2141C70.4172 86.8064 69.2489 82.7039 67.8676 78.4798C67.1129 76.1718 63.6703 60.7258 58.8181 64.2587C53.0627 68.4493 54.3857 84.0947 55.9535 89.4688C57.611 95.1502 62.0269 105.987 69.9835 103.948C77.4324 102.04 79.7776 93.215 75.4197 87.4972C73.3692 84.8069 65.952 78.2015 65.0681 85.3318C64.1705 92.5732 69.9848 101.387 75.1592 105.791C78.4626 108.602 85.3856 110.951 87.0733 104.918C88.0664 101.368 81.552 95.9649 78.2842 96.644C70.5993 98.241 79.4661 113.226 81.279 116.133C83.4275 119.579 96.0727 127.031 93.5186 118.04C92.8281 115.609 86.7366 108.67 83.7204 110.542C78.3634 113.866 89.8187 125.714 92.6723 126.961C96.9415 128.826 96.6965 124.339 94.8207 121.983C93.1863 119.931 89.6201 117.295 91.0447 122.145C92.0228 125.475 95.1613 133.357 99.8337 132.455C104.775 131.501 102.036 119.725 101.006 117.071C100.143 114.848 98.3552 110.293 95.9926 109.12C93.9002 108.081 95.5634 113.202 95.7647 113.709C97.037 116.916 100.308 124.763 104.651 124.763C109.943 124.763 105.214 112.567 104.521 110.897C103.771 109.088 103.016 105.922 101.006 105.015C99.3452 104.266 100.81 110.28 101.006 110.897C101.502 112.466 104.925 126.661 108.883 124.892C113.707 122.737 110.594 112.985 109.73 109.475C108.845 105.884 107.655 102.399 106.67 98.8418C106.117 96.8457 105.915 97.4469 106.409 99.165C106.663 100.048 107.697 101.952 108.883 101.363C110.992 100.316 110.733 95.7689 110.934 93.8967C111.712 86.6334 111.039 78.9009 110.511 71.6278C110.158 66.7661 109.713 63.007 107.158 58.9904C103.357 53.0153 102.667 47.2558 96.1228 43.121C91.2539 40.0446 85.5431 36.0508 79.8793 39.2425C72.5521 43.3716 67.0722 52.4894 63.8962 59.9924C62.6447 62.9491 61.3656 72.4779 67.1189 67.8463C71.0119 64.7122 73.4903 60.7096 75.5173 56.2109C77.608 51.5709 80.3421 46.5852 79.8142 41.3434C78.7758 31.033 67.8794 47.9357 66.8259 50.2315C64.8177 54.6078 57.3315 72.2273 64.9379 74.9245C67.7092 75.9072 70.6976 72.833 72.3598 70.9814C76.5153 66.3522 79.8848 60.2839 80.628 54.0454C81.0537 50.4715 80.4218 45.4228 76.7869 43.5089C72.031 41.0047 66.746 50.1826 65.1332 53.205C61.8288 59.3978 59.7194 66.103 59.1762 73.1146C58.8635 77.1502 58.3367 83.4711 62.5941 85.8489C65.9737 87.7363 70.337 82.7689 72.1645 80.6129C76.7718 75.1772 79.6811 69.0068 82.1254 62.3841C83.9494 57.4421 84.8151 51.5881 83.3949 46.4177C82.1649 41.9398 77.4249 48.5268 76.6241 49.7791C71.6223 57.6009 69.4373 67.4237 67.9978 76.4759C67.2329 81.2857 65.7375 89.0482 69.072 93.2503C76.6474 102.797 86.9648 76.8767 87.9848 73.2438C89.7203 67.0623 90.6436 60.1898 89.8077 53.7868C89.0031 47.6245 85.1014 55.9471 84.3389 57.9562C81.8088 64.6231 80.9601 72.201 80.4327 79.2555C80.0603 84.2358 79.1038 91.2682 81.0186 96.1268C82.7832 100.604 86.4797 98.2391 88.3754 95.4158C92.4723 89.3141 93.5637 81.8751 94.2348 74.7306C94.8024 68.6878 94.7759 62.2666 93.9092 56.2432C92.906 49.2704 90.379 63.6496 90.1983 64.7758C88.7511 73.7963 87.8267 83.0488 87.7895 92.1837C87.7699 96.9855 86.1359 110.205 91.5655 113.257C94.6114 114.969 97.3064 110.746 98.5642 108.57C102.636 101.529 102.643 91.9062 102.08 84.0712C101.68 78.5166 100.987 72.9924 100.127 67.4908C99.7486 65.074 99.5346 62.2342 98.3363 60.0247C96.6815 56.9733 96.0778 71.1555 96.0902 71.951C96.1323 74.642 98.5229 109.529 102.894 107.439C105.203 106.335 105.442 99.8846 105.628 97.9045C106.506 88.5656 104.99 78.7728 103.317 69.5916C103.192 68.9096 101.413 61.9379 101.396 61.9963C99.9304 67.0094 100.68 73.352 100.68 78.4798C100.68 84.3838 100.378 90.4155 101.852 96.1915C102.449 98.5325 103.743 101.273 104.912 97.6136C108.556 86.2019 105.251 72.1067 102.145 60.8004C101.324 57.81 101.199 59.9744 101.396 61.6731C101.915 66.141 102.551 71.1138 104.196 75.3124C104.471 76.0153 106.477 80.4483 107.939 78.6737C109.351 76.9601 107.837 72.0427 107.353 70.2703C105.641 63.9914 102.396 58.1733 98.9548 52.6879C97.0979 49.7283 94.958 46.1733 91.3376 45.1249C82.1181 42.455 83.1029 70.0072 83.2322 73.6963C83.4456 79.7884 84.1896 85.7952 85.9991 91.6343C86.2746 92.5232 88.0401 98.1073 89.5147 95.5451C91.677 91.7879 88.0416 84.5453 86.3572 81.2594C84.8205 78.2616 79.4148 67.6705 75.2244 67.814C70.764 67.9667 70.8067 76.5308 70.9275 79.2555C71.27 86.981 73.0267 94.607 76.5264 101.557C78.2217 104.923 81.1962 108.635 85.0876 109.508C86.6904 109.867 90.2656 109.414 89.71 106.987C89.155 104.562 85.909 103.221 84.0785 102.009C80.4338 99.5967 76.9942 97.0013 73.0759 95.0279C66.3966 91.664 72.816 102.912 74.085 105.338C76.1379 109.264 78.9252 114.228 83.3298 115.939C85.1917 116.663 85.7051 115.365 84.1762 114.226C81.2037 112.013 78.2577 109.769 75.2244 107.633C74.0183 106.784 69.6839 102.219 67.9978 102.591C67.9041 102.612 75.564 112.575 76.9496 113.645C81.6781 117.296 67.3457 106.527 62.3988 103.173C58.5448 100.559 60.6912 101.897 62.9197 104.078C64.9949 106.108 66.897 108.273 68.9092 110.348C70.576 112.066 72.8395 111.144 75.2244 111.996C78.6074 113.205 82.1225 117.224 86.0316 114.42C89.8056 111.714 89.4641 110.849 91.3051 115.81C93.5176 121.773 94.6099 128.088 95.9926 134.265C96.4639 136.371 97.1583 133.832 97.49 132.972C98.3732 130.683 99.4604 128.073 99.5082 125.603C99.5946 121.141 95.9436 119.839 93.0954 123.567C92.2518 124.671 88.7235 132.227 93.0629 130.257C95.2382 129.27 96.0718 127.859 96.5785 125.539C98.1184 118.489 98.0988 110.772 97.49 103.625C97.3293 101.739 97.1019 92.548 94.2022 91.8282C90.8218 90.9891 89.1711 104.323 88.9613 106.276C88.3899 111.594 87.3497 116.988 88.3754 122.307C89.2977 127.089 91.5412 125.452 92.9327 121.725C95.1381 115.818 95.3111 108.828 95.0486 102.623C94.8663 98.3163 94.347 94.1488 93.3559 89.9536C93.0353 88.5966 92.7243 85.3277 91.2725 84.4268C88.8018 82.8935 88.4325 93.2202 88.3754 94.1553C88.1958 97.0968 87.2911 105.878 87.822 102.979C89.8898 91.6866 86.1308 78.0248 80.0421 68.4604C72.5394 56.675 64.4171 76.6509 64.4171 83.3279C64.4171 84.4862 64.5477 88.5654 66.6957 87.5296C70.4974 85.6961 69.9871 78.6599 69.9509 75.377C69.9143 72.0475 69.2927 62.2866 65.5238 60.3802C60.9739 58.0788 60.8778 74.2939 60.8363 75.5709" stroke="#FFD700" stroke-width="7.02381" stroke-linecap="round" stroke-linejoin="round"/>
        <path d="M91.8906 146.547C94.9871 145.947 98.2151 145.152 101.298 144.769C104.046 144.428 107.823 141.204 110.283 139.889C112.542 138.681 115.369 138.418 117.542 136.98C118.396 136.414 121.326 132.437 121.188 134.911C121.102 136.437 118.899 139.053 118.225 140.503C117.021 143.093 114.288 145.62 112.073 147.42C109.672 149.37 107.305 150.982 104.521 152.365C101.872 153.68 98.5103 154.431 96.2526 156.437C94.6523 157.859 97.3442 157.912 98.6615 158.15C101.157 158.601 103.696 158.123 105.725 156.728C108.139 155.069 111.498 153.417 114.286 152.494C116.774 151.671 118.377 150.108 120.602 149.003C121.472 148.571 124.626 147.888 122.652 149.456C121.707 150.207 121.709 152.234 121.188 153.27C120.529 154.577 119.012 155.826 117.9 156.76C115.468 158.803 112.825 161.16 110.055 162.707C108.872 163.368 113.984 163.886 114.156 164" stroke="#4D4D4D" stroke-width="7.02381" stroke-linecap="round" stroke-linejoin="round"/>
        <path d="M88.3751 132.003C88.3751 126.035 88.9611 120.239 88.9611 114.291C88.9611 106.938 86.672 99.6837 84.7293 92.636C82.7132 85.3218 80.1748 78.0307 75.4845 71.9508C72.6988 68.3397 69.782 62.19 64.4819 62.19C61.3417 62.19 60.8361 65.0189 60.8361 67.4259C60.8361 71.9863 63.3893 75.945 67.1512 78.4795C71.3009 81.2754 76.6141 81.9284 81.2137 83.7155C85.0399 85.202 88.9323 86.9818 91.7605 83.1337C97.3315 75.5537 98.6892 66.5236 98.3361 57.4065C98.3013 56.5084 96.9181 53.4491 95.8621 54.4976C93.8134 56.5318 92.5392 60.3045 92.4767 63.1596C92.1972 75.9245 93.9183 89.7933 99.0522 101.556C100.202 104.191 101.367 106.826 102.763 109.346C103.844 111.296 104.198 113.603 105.498 115.39C106.236 116.404 111.764 122.824 109.469 119.785" stroke="#4D4D4D" stroke-width="7.02381" stroke-linecap="round" stroke-linejoin="round"/>
        <path d="M39.7424 140.729C43.0834 137.412 45.8738 133.792 48.6617 129.999C50.4577 127.555 49.8169 128.268 49.1174 126.185" stroke="#FFD700" stroke-width="7.02381" stroke-linecap="round" stroke-linejoin="round"/>
        <path d="M12.7891 93.0238C15.9507 91.9347 20.14 90.4034 22.8802 88.4989C23.2842 88.2181 22.2789 90.9247 21.5781 89.5331" stroke="#FFD700" stroke-width="7.02381" stroke-linecap="round" stroke-linejoin="round"/>
        <path d="M4 38.3374C8.03186 41.0334 11.9837 43.5733 17.0208 43.5733C18.1398 43.5733 21.8063 43.4447 20.9922 41.828" stroke="#FFD700" stroke-width="7.02381" stroke-linecap="round" stroke-linejoin="round"/>
        <path d="M48.5312 6.92188C49.3827 10.867 50.8876 13.8221 53.1862 17.1029C53.5796 17.6644 56.4068 20.6874 54.9766 18.5573" stroke="#FFD700" stroke-width="7.02381" stroke-linecap="round" stroke-linejoin="round"/>
        <path d="M101.266 13.3211C103.834 11.604 106.729 9.75504 108.883 7.50343C109.504 6.85383 111.813 3.77757 111.813 4.0128" stroke="#FFD700" stroke-width="7.02381" stroke-linecap="round" stroke-linejoin="round"/>
        <path d="M136.422 41.828C142.293 39.9245 154 36.0103 154 36.0103" stroke="#FFD700" stroke-width="7.02381" stroke-linecap="round" stroke-linejoin="round"/>
        <path d="M137.008 89.5333C140.511 92.909 143.85 92.4353 148.141 94.0582C150.035 94.7748 150.749 94.1238 148.141 93.6057" stroke="#FFD700" stroke-width="7.02381" stroke-linecap="round" stroke-linejoin="round"/>
    </symbol>

    <symbol width="18" height="18" viewBox="0 0 18 18" fill="none" id="spotify">
        <mask id="path-1-outside-1_301_395" maskUnits="userSpaceOnUse" x="0" y="0" width="18" height="18" fill="black">
            <rect fill="white" width="18" height="18" />
            <path d="M9.00003 1C7.41775 1 5.87102 1.46919 4.55542 2.34822C3.23986 3.2273 2.21449 4.47674 1.60895 5.93852C1.00346 7.40035 0.845035 9.00889 1.15374 10.5607C1.46239 12.1126 2.22431 13.538 3.34314 14.6569C4.46197 15.7757 5.88745 16.5376 7.4393 16.8463C8.99114 17.155 10.5997 16.9966 12.0615 16.391C13.5233 15.7855 14.7727 14.7601 15.6518 13.4446C16.5308 12.129 17 10.5823 17 9.00001C17 6.87825 16.1572 4.84344 14.6569 3.34316C13.1566 1.84284 11.1218 1 9.00003 1ZM12.6712 12.5371C12.6372 12.5936 12.5922 12.6428 12.539 12.6819C12.4858 12.7209 12.4253 12.7489 12.3611 12.7643C12.297 12.7798 12.2304 12.7823 12.1652 12.7718C12.1001 12.7613 12.0377 12.738 11.9816 12.7031C10.1046 11.5539 7.74223 11.2985 4.95851 11.9306C4.89517 11.9457 4.8295 11.9481 4.76523 11.9376C4.701 11.9271 4.63943 11.904 4.58423 11.8695C4.52899 11.8351 4.48114 11.79 4.44344 11.7369C4.40575 11.6838 4.37903 11.6238 4.36475 11.5603C4.34953 11.4965 4.34711 11.4304 4.35748 11.3658C4.36791 11.3011 4.39095 11.2391 4.42534 11.1833C4.45974 11.1276 4.50483 11.0792 4.55793 11.0409C4.61108 11.0026 4.67126 10.9751 4.73502 10.9601C7.78053 10.2641 10.3982 10.5642 12.5052 11.854C12.6176 11.9227 12.6982 12.0332 12.7293 12.1612C12.7604 12.2893 12.7396 12.4245 12.6712 12.5371ZM13.6481 10.3599C13.5588 10.4972 13.4203 10.5949 13.2611 10.6329C13.1019 10.6709 12.9341 10.6463 12.7925 10.5642C10.3649 9.21005 7.49906 8.87481 4.82443 9.63206C4.74121 9.67849 4.64864 9.70567 4.55356 9.71163C4.45843 9.7176 4.36321 9.7022 4.27483 9.66656C4.18645 9.63093 4.10719 9.576 4.04283 9.50572C3.97846 9.43549 3.93062 9.35169 3.90283 9.26057C3.87505 9.1694 3.86802 9.0732 3.88226 8.97898C3.8965 8.88476 3.93164 8.79495 3.98511 8.71608C4.03859 8.63721 4.10905 8.57134 4.19129 8.52322C4.27357 8.47515 4.36554 8.44604 4.46048 8.43815C5.95336 8.0084 7.51707 7.88132 9.05974 8.06446C10.6024 8.24755 12.093 8.73711 13.4438 9.50441C13.581 9.59361 13.6787 9.73215 13.7167 9.89135C13.7547 10.0506 13.7302 10.2183 13.6481 10.3599ZM13.731 8.09338C11.1772 6.56103 6.90585 6.42057 4.44135 7.16759C4.2517 7.22519 4.04692 7.20505 3.87212 7.11163C3.69731 7.01825 3.56676 6.85924 3.50919 6.66958C3.45162 6.47996 3.47173 6.27518 3.56514 6.10035C3.6585 5.92556 3.81752 5.795 4.00718 5.73745C6.83562 4.88189 11.5283 5.04789 14.4972 6.80366C14.6498 6.9129 14.7558 7.07557 14.7939 7.25937C14.8321 7.44312 14.7996 7.63452 14.703 7.7955C14.6065 7.95643 14.4528 8.07511 14.2728 8.12793C14.0927 8.18079 13.8992 8.16389 13.731 8.08061V8.09338Z" />
        </mask>
        <path d="M9.00003 1C7.41775 1 5.87102 1.46919 4.55542 2.34822C3.23986 3.2273 2.21449 4.47674 1.60895 5.93852C1.00346 7.40035 0.845035 9.00889 1.15374 10.5607C1.46239 12.1126 2.22431 13.538 3.34314 14.6569C4.46197 15.7757 5.88745 16.5376 7.4393 16.8463C8.99114 17.155 10.5997 16.9966 12.0615 16.391C13.5233 15.7855 14.7727 14.7601 15.6518 13.4446C16.5308 12.129 17 10.5823 17 9.00001C17 6.87825 16.1572 4.84344 14.6569 3.34316C13.1566 1.84284 11.1218 1 9.00003 1ZM12.6712 12.5371C12.6372 12.5936 12.5922 12.6428 12.539 12.6819C12.4858 12.7209 12.4253 12.7489 12.3611 12.7643C12.297 12.7798 12.2304 12.7823 12.1652 12.7718C12.1001 12.7613 12.0377 12.738 11.9816 12.7031C10.1046 11.5539 7.74223 11.2985 4.95851 11.9306C4.89517 11.9457 4.8295 11.9481 4.76523 11.9376C4.701 11.9271 4.63943 11.904 4.58423 11.8695C4.52899 11.8351 4.48114 11.79 4.44344 11.7369C4.40575 11.6838 4.37903 11.6238 4.36475 11.5603C4.34953 11.4965 4.34711 11.4304 4.35748 11.3658C4.36791 11.3011 4.39095 11.2391 4.42534 11.1833C4.45974 11.1276 4.50483 11.0792 4.55793 11.0409C4.61108 11.0026 4.67126 10.9751 4.73502 10.9601C7.78053 10.2641 10.3982 10.5642 12.5052 11.854C12.6176 11.9227 12.6982 12.0332 12.7293 12.1612C12.7604 12.2893 12.7396 12.4245 12.6712 12.5371ZM13.6481 10.3599C13.5588 10.4972 13.4203 10.5949 13.2611 10.6329C13.1019 10.6709 12.9341 10.6463 12.7925 10.5642C10.3649 9.21005 7.49906 8.87481 4.82443 9.63206C4.74121 9.67849 4.64864 9.70567 4.55356 9.71163C4.45843 9.7176 4.36321 9.7022 4.27483 9.66656C4.18645 9.63093 4.10719 9.576 4.04283 9.50572C3.97846 9.43549 3.93062 9.35169 3.90283 9.26057C3.87505 9.1694 3.86802 9.0732 3.88226 8.97898C3.8965 8.88476 3.93164 8.79495 3.98511 8.71608C4.03859 8.63721 4.10905 8.57134 4.19129 8.52322C4.27357 8.47515 4.36554 8.44604 4.46048 8.43815C5.95336 8.0084 7.51707 7.88132 9.05974 8.06446C10.6024 8.24755 12.093 8.73711 13.4438 9.50441C13.581 9.59361 13.6787 9.73215 13.7167 9.89135C13.7547 10.0506 13.7302 10.2183 13.6481 10.3599ZM13.731 8.09338C11.1772 6.56103 6.90585 6.42057 4.44135 7.16759C4.2517 7.22519 4.04692 7.20505 3.87212 7.11163C3.69731 7.01825 3.56676 6.85924 3.50919 6.66958C3.45162 6.47996 3.47173 6.27518 3.56514 6.10035C3.6585 5.92556 3.81752 5.795 4.00718 5.73745C6.83562 4.88189 11.5283 5.04789 14.4972 6.80366C14.6498 6.9129 14.7558 7.07557 14.7939 7.25937C14.8321 7.44312 14.7996 7.63452 14.703 7.7955C14.6065 7.95643 14.4528 8.07511 14.2728 8.12793C14.0927 8.18079 13.8992 8.16389 13.731 8.08061V8.09338Z" fill="#1ED760" />
        <path d="M4.55542 2.34822L3.99986 1.51674L3.99983 1.51676L4.55542 2.34822ZM1.60895 5.93852L0.68508 5.55581L0.685065 5.55585L1.60895 5.93852ZM1.15374 10.5607L2.13453 10.3656L2.13452 10.3656L1.15374 10.5607ZM3.34314 14.6569L2.63603 15.364L2.63604 15.364L3.34314 14.6569ZM12.0615 16.391L11.6788 15.4672L11.6788 15.4672L12.0615 16.391ZM14.6569 3.34316L13.9498 4.05027L14.6569 3.34316ZM12.6712 12.5371L11.8163 12.0184L11.8144 12.0214L12.6712 12.5371ZM12.539 12.6819L13.1301 13.4885L13.1304 13.4882L12.539 12.6819ZM12.3611 12.7643L12.1272 11.7921L12.127 11.7921L12.3611 12.7643ZM11.9816 12.7031L12.5096 11.8538L12.5038 11.8503L11.9816 12.7031ZM4.95851 11.9306L4.73707 10.9553L4.72637 10.9579L4.95851 11.9306ZM4.76523 11.9376L4.9267 10.9507L4.92611 10.9506L4.76523 11.9376ZM4.58423 11.8695L4.05499 12.718L4.05518 12.7181L4.58423 11.8695ZM4.36475 11.5603L5.34045 11.3408L5.33738 11.3279L4.36475 11.5603ZM4.35748 11.3658L3.37022 11.2067L3.37011 11.2074L4.35748 11.3658ZM4.42534 11.1833L3.57437 10.6581L3.57417 10.6584L4.42534 11.1833ZM4.55793 11.0409L3.97322 10.2296L3.97288 10.2299L4.55793 11.0409ZM4.73502 10.9601L4.51225 9.98519L4.50568 9.98674L4.73502 10.9601ZM12.5052 11.854L11.9831 12.7069L11.9835 12.7071L12.5052 11.854ZM12.7293 12.1612L11.7576 12.3972L11.7576 12.3975L12.7293 12.1612ZM13.6481 10.3599L14.4865 10.9049L14.5004 10.8835L14.5132 10.8615L13.6481 10.3599ZM12.7925 10.5642L13.2941 9.69912L13.2869 9.69496L13.2797 9.69092L12.7925 10.5642ZM4.82443 9.63206L4.55201 8.66988L4.43939 8.70176L4.33718 8.75879L4.82443 9.63206ZM4.55356 9.71163L4.61611 10.7097L4.61614 10.7097L4.55356 9.71163ZM4.04283 9.50572L4.78028 8.83033L4.78006 8.83008L4.04283 9.50572ZM3.90283 9.26057L2.94627 9.55208L2.94631 9.55222L3.90283 9.26057ZM3.88226 8.97898L2.89349 8.82953L3.88226 8.97898ZM4.19129 8.52322L3.68683 7.65979L3.68625 7.66012L4.19129 8.52322ZM4.46048 8.43815L4.54327 9.43472L4.64195 9.42652L4.73711 9.39913L4.46048 8.43815ZM9.05974 8.06446L8.94185 9.05749L8.94188 9.05749L9.05974 8.06446ZM13.4438 9.50441L13.9887 8.66593L13.9636 8.64965L13.9377 8.6349L13.4438 9.50441ZM13.7167 9.89135L14.6894 9.6591L14.6894 9.65903L13.7167 9.89135ZM13.731 8.09338L13.2165 8.95087L14.731 9.85958V8.09338H13.731ZM4.44135 7.16759L4.15127 6.21058L4.15073 6.21075L4.44135 7.16759ZM3.87212 7.11163L4.34347 6.22968L4.34328 6.22958L3.87212 7.11163ZM3.50919 6.66958L4.46608 6.37912L4.46606 6.37906L3.50919 6.66958ZM3.56514 6.10035L4.44714 6.57158L4.44719 6.57149L3.56514 6.10035ZM4.00718 5.73745L3.71765 4.78028L3.71677 4.78054L4.00718 5.73745ZM14.4972 6.80366L15.0793 5.99053L15.0438 5.96512L15.0063 5.94291L14.4972 6.80366ZM14.7939 7.25937L15.7731 7.05625L15.7731 7.05607L14.7939 7.25937ZM14.703 7.7955L15.5605 8.31004L15.5606 8.30993L14.703 7.7955ZM14.2728 8.12793L13.9913 7.16835L13.9912 7.1684L14.2728 8.12793ZM13.731 8.08061L14.1748 7.18445L12.731 6.46958V8.08061H13.731ZM9.00003 0C7.21997 0 5.47991 0.527832 3.99986 1.51674L5.11098 3.1797C6.26214 2.41054 7.61553 2 9.00003 2V0ZM3.99983 1.51676C2.51984 2.50572 1.3663 3.91133 0.68508 5.55581L2.53282 6.32123C3.06267 5.04215 3.95989 3.94887 5.11101 3.17967L3.99983 1.51676ZM0.685065 5.55585C0.003892 7.20039 -0.174338 9.01 0.172955 10.7558L2.13452 10.3656C1.86441 9.00777 2.00302 7.6003 2.53283 6.32119L0.685065 5.55585ZM0.172948 10.7558C0.520188 12.5016 1.37735 14.1053 2.63603 15.364L4.05025 13.9498C3.07127 12.9708 2.4046 11.7235 2.13453 10.3656L0.172948 10.7558ZM2.63604 15.364C3.89472 16.6226 5.49838 17.4798 7.24421 17.8271L7.63439 15.8655C6.27653 15.5954 5.02922 14.9287 4.05023 13.9497L2.63604 15.364ZM7.24421 17.8271C8.99002 18.1743 10.7996 17.9961 12.4442 17.3149L11.6788 15.4672C10.3997 15.997 8.99226 16.1356 7.63439 15.8655L7.24421 17.8271ZM12.4441 17.3149C14.0887 16.6337 15.4943 15.4802 16.4832 14.0001L14.8203 12.889C14.0511 14.0401 12.9579 14.9373 11.6788 15.4672L12.4441 17.3149ZM16.4832 14.0001C17.4722 12.5201 18 10.78 18 9.00001H16C16 10.3845 15.5895 11.7379 14.8203 12.889L16.4832 14.0001ZM18 9.00001C18 6.61304 17.0518 4.32387 15.364 2.63606L13.9498 4.05027C15.2625 5.36301 16 7.14347 16 9.00001H18ZM15.364 2.63606C13.6761 0.948195 11.387 0 9.00003 0V2C10.8565 2 12.637 2.73748 13.9498 4.05027L15.364 2.63606ZM11.8144 12.0214C11.8489 11.9642 11.8942 11.9146 11.9476 11.8755L13.1304 13.4882C13.2902 13.3711 13.4254 13.2231 13.528 13.0528L11.8144 12.0214ZM11.948 11.8752C12.0017 11.8359 12.0626 11.8076 12.1272 11.7921L12.5951 13.7366C12.788 13.6902 12.9699 13.6059 13.1301 13.4885L11.948 11.8752ZM12.127 11.7921C12.1918 11.7765 12.259 11.774 12.3246 11.7846L12.0059 13.759C12.2018 13.7907 12.4022 13.7831 12.5953 13.7365L12.127 11.7921ZM12.3246 11.7846C12.39 11.7951 12.4529 11.8186 12.5096 11.8539L11.4537 13.5524C11.6225 13.6573 11.8102 13.7275 12.0059 13.759L12.3246 11.7846ZM12.5038 11.8503C10.3425 10.527 7.6944 10.2839 4.73708 10.9554L5.17994 12.9057C7.79006 12.3131 9.86666 12.5808 11.4595 13.556L12.5038 11.8503ZM4.72637 10.9579C4.79173 10.9423 4.85986 10.9398 4.9267 10.9507L4.60376 12.9244C4.79914 12.9564 4.9986 12.9491 5.19065 12.9033L4.72637 10.9579ZM4.92611 10.9506C4.99253 10.9614 5.0561 10.9853 5.11328 11.0209L4.05518 12.7181C4.22276 12.8226 4.40948 12.8928 4.60435 12.9245L4.92611 10.9506ZM5.11348 11.0211C5.1705 11.0566 5.21992 11.1032 5.25883 11.158L3.62805 12.3158C3.74237 12.4768 3.88748 12.6135 4.05499 12.718L5.11348 11.0211ZM5.25883 11.158C5.29812 11.2133 5.32569 11.2756 5.34037 11.3408L3.38912 11.7797C3.43238 11.972 3.51338 12.1543 3.62805 12.3158L5.25883 11.158ZM5.33738 11.3279C5.35292 11.393 5.3552 11.4597 5.34486 11.5242L3.37011 11.2074C3.33901 11.4012 3.34613 11.6001 3.39211 11.7926L5.33738 11.3279ZM5.34475 11.5248C5.3343 11.5897 5.31115 11.652 5.27651 11.7082L3.57417 10.6584C3.47075 10.8261 3.40152 11.0124 3.37022 11.2067L5.34475 11.5248ZM5.27631 11.7085C5.24148 11.765 5.19609 11.8136 5.14299 11.8519L3.97288 10.2299C3.81358 10.3448 3.678 10.4902 3.57437 10.6581L5.27631 11.7085ZM5.14265 11.8521C5.08926 11.8906 5.0287 11.9183 4.96436 11.9334L4.50568 9.98674C4.31383 10.0319 4.13291 10.1145 3.97322 10.2296L5.14265 11.8521ZM4.95779 11.935C7.81975 11.281 10.1543 11.5874 11.9831 12.7069L13.0273 11.0011C10.6422 9.54108 7.74132 9.24733 4.51225 9.98522L4.95779 11.935ZM11.9835 12.7071C11.8702 12.6378 11.7889 12.5264 11.7576 12.3972L13.7011 11.9252C13.6075 11.54 13.365 11.2076 13.0269 11.0008L11.9835 12.7071ZM11.7576 12.3975C11.7262 12.2684 11.7473 12.132 11.8163 12.0184L13.5261 13.0559C13.7318 12.7169 13.7947 12.3102 13.701 11.925L11.7576 12.3975ZM12.8096 9.81497C12.8602 9.73706 12.9388 9.68177 13.0288 9.66027L13.4934 11.6056C13.9018 11.508 14.2575 11.2573 14.4865 10.9049L12.8096 9.81497ZM13.0288 9.66027C13.119 9.63872 13.214 9.65269 13.2941 9.69912L12.2909 11.4293C12.6543 11.64 13.0847 11.7032 13.4934 11.6056L13.0288 9.66027ZM13.2797 9.69092C10.6207 8.20764 7.48159 7.84044 4.55201 8.66988L5.09684 10.5942C7.51652 9.90917 10.1092 10.2125 12.3054 11.4375L13.2797 9.69092ZM4.33718 8.75879C4.38451 8.73238 4.43706 8.71697 4.49098 8.71359L4.61614 10.7097C4.86022 10.6944 5.09791 10.6246 5.31167 10.5053L4.33718 8.75879ZM4.49101 8.71359C4.5448 8.71022 4.59872 8.71893 4.64876 8.73911L3.9009 10.594C4.1277 10.6855 4.37206 10.725 4.61611 10.7097L4.49101 8.71359ZM4.64876 8.73911C4.6987 8.75924 4.7437 8.79038 4.78028 8.83033L3.30537 10.1811C3.47069 10.3616 3.6742 10.5026 3.9009 10.594L4.64876 8.73911ZM4.78006 8.83008C4.81658 8.86994 4.84364 8.91736 4.85936 8.96891L2.94631 9.55222C3.0176 9.78603 3.14034 10.001 3.3056 10.1814L4.78006 8.83008ZM4.8594 8.96905C4.8751 9.02059 4.8791 9.07507 4.87103 9.12843L2.89349 8.82953C2.85694 9.07134 2.87499 9.3182 2.94627 9.55208L4.8594 8.96905ZM4.87103 9.12843C4.86297 9.18177 4.84306 9.23264 4.81281 9.27726L3.15742 8.1549C3.02022 8.35726 2.93004 8.58775 2.89349 8.82953L4.87103 9.12843ZM4.81281 9.27726C4.78239 9.32213 4.7425 9.3593 4.69633 9.38632L3.68625 7.66012C3.47561 7.78338 3.29479 7.95229 3.15742 8.1549L4.81281 9.27726ZM4.69575 9.38666C4.64962 9.41361 4.59757 9.43021 4.54327 9.43472L4.37769 7.44159C4.1335 7.46187 3.89753 7.53669 3.68683 7.65979L4.69575 9.38666ZM4.73711 9.39913C6.10195 9.00624 7.53153 8.89006 8.94185 9.05749L9.17763 7.07143C7.5026 6.87258 5.80476 7.01057 4.18385 7.47718L4.73711 9.39913ZM8.94188 9.05749C10.3522 9.22488 11.7149 9.67245 12.9498 10.3739L13.9377 8.6349C12.471 7.80178 10.8526 7.27022 9.1776 7.07143L8.94188 9.05749ZM12.8988 10.3429C12.8209 10.2922 12.7656 10.2137 12.7441 10.1237L14.6894 9.65903C14.5918 9.25063 14.3411 8.89499 13.9887 8.66593L12.8988 10.3429ZM12.7441 10.1236C12.7226 10.0336 12.7364 9.93859 12.783 9.85832L14.5132 10.8615C14.7239 10.4981 14.7869 10.0676 14.6894 9.6591L12.7441 10.1236ZM14.2456 7.23589C12.7892 6.36205 10.9147 5.91904 9.13107 5.7788C7.3429 5.6382 5.52945 5.79284 4.15127 6.21058L4.73143 8.12459C5.81775 7.79531 7.37222 7.64668 8.97431 7.77265C10.5809 7.89897 12.1191 8.29236 13.2165 8.95087L14.2456 7.23589ZM4.15073 6.21075C4.21499 6.19123 4.28431 6.19807 4.34347 6.22968L3.40076 7.99357C3.80953 8.21203 4.28841 8.25915 4.73198 8.12442L4.15073 6.21075ZM4.34328 6.22958C4.40247 6.2612 4.44662 6.31502 4.46608 6.37912L2.5523 6.96003C2.6869 7.40346 2.99215 7.7753 3.40095 7.99367L4.34328 6.22958ZM4.46606 6.37906C4.48554 6.4432 4.47874 6.51244 4.44714 6.57158L2.68313 5.62911C2.46472 6.03791 2.41771 6.51671 2.55232 6.96009L4.46606 6.37906ZM4.44719 6.57149C4.41555 6.63073 4.36172 6.67488 4.29758 6.69435L3.71677 4.78054C3.27332 4.91512 2.90144 5.22039 2.68308 5.6292L4.44719 6.57149ZM4.2967 6.69462C5.56741 6.31025 7.31846 6.14193 9.11864 6.28803C10.9214 6.43433 12.6753 6.88799 13.9882 7.6644L15.0063 5.94291C13.3502 4.96356 11.2734 4.45633 9.28043 4.29458C7.28492 4.13263 5.27539 4.30909 3.71765 4.78028L4.2967 6.69462ZM13.9152 7.61678C13.8636 7.57984 13.8277 7.52482 13.8148 7.46267L15.7731 7.05607C15.6838 6.62632 15.4361 6.24596 15.0793 5.99053L13.9152 7.61678ZM13.8148 7.46248C13.8019 7.40024 13.8129 7.33548 13.8455 7.28107L15.5606 8.30993C15.7864 7.93356 15.8622 7.486 15.7731 7.05625L13.8148 7.46248ZM13.8456 7.28096C13.8783 7.22644 13.9303 7.18625 13.9913 7.16835L14.5542 9.0875C14.9754 8.96398 15.3346 8.68643 15.5605 8.31004L13.8456 7.28096ZM13.9912 7.1684C14.0522 7.15049 14.1177 7.15621 14.1748 7.18445L13.2873 8.97676C13.6807 9.17157 14.1331 9.2111 14.5544 9.08746L13.9912 7.1684ZM12.731 8.08061V8.09338H14.731V8.08061H12.731Z" mask="url(#path-1-outside-1_301_395)" />
    </symbol>

    <symbol width="124" height="124" viewBox="0 0 124 124" id="vector4">
        <path d="M86.3474 2C76.4722 11.0172 63.6396 29.7092 31.2177 32.9779C-0.450531 36.1705 74.6031 3.02726 97.5111 17.6517C124.289 34.7467 -8.1881 84.113 8.77193 64.9345C18.2604 54.205 106.907 33.3564 106.907 50.2606C106.907 71.7648 8.77179 104.986 2.66813 97.3922C-8.09955 83.9963 114.757 54.8902 121.001 72.7607C128.447 94.07 50.0547 119.321 35.4387 111.169C23.7459 104.647 110.256 89.7993 122 122" stroke="#CD4631" stroke-width="2.5" stroke-linecap="round"/>
    </symbol>
</svg>


