<svg width="203" height="194" viewBox="0 0 203 194" fill="none" xmlns="http://www.w3.org/2000/svg">
<path d="M103.802 133.592C98.9489 130.857 90.5521 127.073 87.9035 123.998C86.8106 122.723 87.2455 121.758 87.669 121.117C88.0799 120.522 89.6005 120.2 90.4097 120.467C92.2455 121.034 93.9933 121.93 95.6454 122.902C99.3237 125.045 102.966 127.228 106.517 129.564C108.401 130.798 108.637 132.547 107.169 133.236C106.307 133.634 105.493 134.045 103.802 133.592Z" fill="#CD4631"/>
<path d="M11.9121 147.847C12.4803 146.666 13.126 146.134 14.0647 145.354C17.7116 142.356 21.457 139.459 25.1554 136.55C25.3764 136.382 25.6271 136.198 25.8824 136.09C27.0354 135.544 28.3435 134.888 29.3316 136.083C30.3134 137.303 29.5385 138.504 28.5981 139.385C24.6857 143.092 20.7327 146.764 16.7391 150.399C16.1341 150.967 15.249 151.358 14.4268 151.516C12.3863 151.9 11.1107 150.275 11.9121 147.847Z" fill="#CD4631"/>
<path d="M70.8021 162.747C70.519 163.804 69.496 164.335 68.8541 164.289C67.9884 164.233 67.3218 163.903 66.3618 162.79C66.0319 162.425 65.967 161.728 65.8643 161.172C65.1444 157.004 64.3947 152.852 63.728 148.673C63.5508 147.644 63.4113 146.474 63.7396 145.53C64.0428 144.681 64.9162 143.581 65.7023 143.465C66.4649 143.342 67.4057 143.493 68.2026 144.839C68.5011 145.322 68.7069 146.056 68.8078 146.712C69.4477 151.086 70.0875 155.46 70.674 159.844C70.7779 160.677 70.7456 161.549 70.8021 162.747Z" fill="#CD4631"/>
<path d="M4.95373 110.428C3.95555 109.833 3.38963 109.128 3.41401 108.38C3.44176 107.431 4.20866 106.353 4.95163 105.646C5.52059 105.119 6.54315 104.966 7.3871 104.915C11.6069 104.662 15.8438 104.438 20.0853 104.291C20.7993 104.256 21.6634 104.412 22.2407 104.793C23.1793 105.422 23.4052 106.364 22.2958 107.123C21.6753 107.561 20.978 108.003 20.2624 108.138C16.1092 108.988 11.9515 109.761 7.77652 110.505C7.0139 110.628 5.92214 111.04 4.95373 110.428Z" fill="#CD4631"/>
<path d="M95.2901 91.4532C94.8302 91.1035 94.6106 90.1388 94.7381 89.5691C94.9222 88.788 95.4086 87.9118 96.048 87.4038C99.0367 84.9837 102.13 82.642 105.194 80.3176C105.642 79.9596 106.182 79.7269 106.723 79.4943C107.94 78.9901 109.437 78.6615 110.015 80.0744C110.349 80.8936 110.048 82.675 109.397 83.1298C105.411 85.9871 101.234 88.6171 97.0799 91.2534C96.7399 91.4894 96.0913 91.844 95.2901 91.4532Z" fill="#CD4631"/>
<path d="M21.3866 66.1909C22.5944 66.9423 23.541 67.4475 24.4092 68.0576C26.9325 69.8157 29.4495 71.5973 31.9368 73.3961C32.6297 73.9089 33.3697 74.4343 33.8715 75.0972C34.2232 75.5689 34.4772 76.5931 34.2247 76.8778C33.7983 77.3422 33.1933 77.9099 32.2496 77.5815C31.8568 77.4511 31.3466 77.2892 30.9319 77.0523C28.0124 75.3642 25.0804 73.723 22.2095 71.9472C21.2348 71.3589 20.2509 70.6172 19.5881 69.7099C19.1098 69.0533 18.842 67.7989 19.1825 67.1855C19.4869 66.6129 20.2362 65.8826 21.3866 66.1909Z" fill="#CD4631"/>
<path d="M66.9547 67.9831C66.8557 68.2585 66.7567 68.5339 66.5936 68.767C65.8863 69.8105 65.282 71.0325 63.6935 70.4811C62.0111 69.9045 62.3181 68.477 62.6499 67.3329C63.4626 64.5814 64.4632 61.8803 65.4231 59.1431C65.7875 58.1587 66.1817 57.1572 66.7213 56.2701C67.2672 55.3595 67.9369 54.4569 69.2545 54.9861C70.4783 55.4902 70.6744 56.4486 70.3959 57.5818C70.0688 58.8026 67.8059 65.7452 66.9547 67.9831Z" fill="#CD4631"/>
<g clip-path="url(#clip0_2580_2)">
<path d="M164.922 91.4679C164.238 89.015 162.747 85.0773 162.885 83.2272C162.943 82.462 163.396 82.2905 163.74 82.22C164.065 82.1607 164.661 82.5481 164.836 82.896C165.246 83.6728 165.521 84.5275 165.741 85.3754C166.238 87.2572 166.709 89.1404 167.102 91.0433C167.312 92.0512 166.823 92.6929 166.126 92.441C165.718 92.2912 165.322 92.1607 164.922 91.4679Z" fill="#CD4631"/>
<path d="M130.611 66.3722C131.177 66.174 131.557 66.2109 132.113 66.2622C134.261 66.4717 136.408 66.7461 138.544 67.0012C138.669 67.0185 138.81 67.04 138.927 67.0877C139.477 67.2837 140.112 67.4945 140.045 68.2004C139.968 68.9119 139.329 69.0498 138.74 69.0303C136.277 68.9641 133.813 68.8731 131.347 68.7573C130.968 68.7452 130.555 68.5858 130.238 68.3709C129.454 67.8355 129.567 66.8978 130.611 66.3722Z" fill="#CD4631"/>
<path d="M144.831 90.2245C144.398 90.4745 143.895 90.3155 143.703 90.0931C143.441 89.7952 143.332 89.4732 143.382 88.8032C143.393 88.5785 143.597 88.3323 143.744 88.1194C144.859 86.5391 145.958 84.9549 147.094 83.3883C147.369 82.9985 147.702 82.5752 148.113 82.3763C148.486 82.1997 149.124 82.1265 149.415 82.343C149.702 82.5498 149.957 82.9029 149.779 83.5955C149.72 83.848 149.549 84.1519 149.369 84.3967C148.162 86.0173 146.956 87.6379 145.728 89.2448C145.492 89.5476 145.2 89.8191 144.831 90.2245Z" fill="#CD4631"/>
<path d="M140.458 52.0272C140.327 51.5123 140.372 51.1014 140.622 50.8674C140.938 50.5697 141.534 50.4692 142.003 50.4809C142.357 50.4945 142.737 50.7753 143.026 51.0317C144.472 52.3139 145.914 53.6112 147.332 54.9349C147.575 55.1543 147.803 55.484 147.867 55.7938C147.967 56.3006 147.736 56.6778 147.132 56.5648C146.79 56.5056 146.421 56.4232 146.146 56.2356C144.529 55.1678 142.935 54.0738 141.345 52.9645C141.059 52.7577 140.573 52.538 140.458 52.0272Z" fill="#CD4631"/>
<path d="M175.792 75.0948C175.757 74.8331 175.998 74.4503 176.223 74.3073C176.535 74.1144 176.976 73.9884 177.346 74.0308C179.095 74.2146 180.852 74.4576 182.593 74.6966C182.854 74.7257 183.104 74.8252 183.354 74.9247C183.91 75.1551 184.5 75.5329 184.23 76.1763C184.074 76.5491 183.4 77.0276 183.043 76.9644C180.831 76.5994 178.63 76.0993 176.436 75.6088C176.249 75.5751 175.925 75.4801 175.792 75.0948Z" fill="#CD4631"/>
<path d="M160.069 43.0394C160.217 43.6727 160.359 44.142 160.443 44.6199C160.69 46.0039 160.928 47.3934 161.15 48.7788C161.209 49.1686 161.278 49.5776 161.226 49.9541C161.187 50.2202 160.938 50.6334 160.765 50.6438C160.477 50.6562 160.097 50.6441 159.899 50.2329C159.814 50.0637 159.701 49.8465 159.644 49.6359C159.246 48.1465 158.828 46.6682 158.474 45.1661C158.35 44.6609 158.271 44.1031 158.35 43.5956C158.408 43.2287 158.727 42.7367 159.035 42.6485C159.319 42.5618 159.797 42.5679 160.069 43.0394Z" fill="#CD4631"/>
<path d="M174.22 58.3488C174.099 58.4058 173.978 58.4629 173.849 58.4855C173.283 58.5941 172.693 58.7939 172.358 58.1021C172 57.3719 172.561 57.0097 173.038 56.7471C174.19 56.1204 175.387 55.5707 176.582 54.9962C177.018 54.7958 177.469 54.5995 177.93 54.4872C178.401 54.3693 178.909 54.294 179.164 54.891C179.397 55.4495 179.15 55.8227 178.694 56.099C178.194 56.3879 175.218 57.9006 174.22 58.3488Z" fill="#CD4631"/>
</g>
<g clip-path="url(#clip1_2580_2)">
<path d="M112.205 24.2861C112.924 23.5687 113.995 22.279 114.676 21.9686C114.958 21.8408 115.115 21.9671 115.213 22.0747C115.304 22.1778 115.294 22.463 115.209 22.5922C115.022 22.8875 114.779 23.1504 114.527 23.3926C113.97 23.9326 113.406 24.4643 112.819 24.9721C112.509 25.2416 112.178 25.1937 112.119 24.8991C112.085 24.7265 112.046 24.5615 112.205 24.2861Z" fill="#CD4631"/>
<path d="M113.744 7.32141C113.934 7.48231 114.002 7.62361 114.102 7.82942C114.486 8.62732 114.846 9.43741 115.211 10.2398C115.232 10.2874 115.254 10.3412 115.263 10.3918C115.311 10.6235 115.371 10.8882 115.108 11.0015C114.841 11.1126 114.657 10.9141 114.538 10.7029C114.037 9.82176 113.544 8.93531 113.059 8.04353C112.983 7.90756 112.951 7.73112 112.96 7.57782C112.981 7.19763 113.336 7.05549 113.744 7.32141Z" fill="#CD4631"/>
<path d="M108.364 16.9626C108.184 16.8585 108.133 16.6506 108.17 16.5395C108.22 16.3894 108.31 16.2885 108.557 16.1759C108.638 16.1364 108.769 16.1606 108.875 16.1709C109.669 16.2572 110.462 16.3374 111.256 16.4337C111.452 16.4551 111.672 16.4904 111.83 16.5967C111.972 16.6938 112.133 16.9044 112.119 17.0493C112.107 17.1903 112.037 17.3488 111.755 17.4206C111.653 17.4486 111.51 17.4474 111.385 17.4316C110.557 17.3206 109.729 17.2096 108.901 17.0887C108.744 17.0644 108.586 17.014 108.364 16.9626Z" fill="#CD4631"/>
<path d="M120.898 8.00877C121.051 7.86287 121.206 7.79901 121.342 7.84165C121.514 7.89515 121.676 8.08585 121.772 8.25331C121.843 8.38083 121.825 8.56936 121.796 8.72106C121.652 9.47956 121.502 10.2396 121.337 10.9965C121.311 11.1244 121.244 11.2691 121.148 11.3515C120.991 11.4852 120.809 11.4769 120.72 11.2419C120.668 11.1099 120.618 10.9641 120.626 10.8307C120.658 10.0534 120.704 9.27923 120.756 8.50355C120.768 8.36252 120.742 8.14853 120.898 8.00877Z" fill="#CD4631"/>
<path d="M120.292 24.941C120.377 24.8776 120.563 24.8882 120.661 24.9399C120.796 25.0125 120.934 25.1433 120.998 25.2823C121.306 25.9343 121.594 26.6007 121.881 27.2611C121.926 27.3586 121.944 27.466 121.962 27.5734C122 27.8142 121.992 28.0956 121.708 28.1252C121.543 28.1423 121.231 27.9979 121.177 27.8597C120.835 27.009 120.542 26.1363 120.248 25.2674C120.22 25.1952 120.184 25.0625 120.292 24.941Z" fill="#CD4631"/>
<path d="M128.243 13.1777C128.051 13.3526 127.916 13.494 127.765 13.6161C127.33 13.9719 126.891 14.3253 126.45 14.6726C126.325 14.7688 126.195 14.8726 126.052 14.9273C125.95 14.9652 125.751 14.9577 125.71 14.8985C125.645 14.7994 125.568 14.6634 125.671 14.5135C125.712 14.4508 125.765 14.3689 125.827 14.3078C126.267 13.8785 126.699 13.4445 127.153 13.0282C127.305 12.8862 127.485 12.7503 127.681 12.6797C127.822 12.6288 128.064 12.6458 128.16 12.7373C128.251 12.8205 128.351 12.9902 128.243 13.1777Z" fill="#CD4631"/>
<path d="M125.86 21.1369C125.814 21.1053 125.768 21.0737 125.733 21.0329C125.574 20.8545 125.378 20.6851 125.551 20.4327C125.732 20.165 125.979 20.2924 126.173 20.4096C126.639 20.6941 127.088 21.0093 127.545 21.3191C127.709 21.4339 127.874 21.5548 128.012 21.6956C128.154 21.8387 128.288 22.0032 128.132 22.2089C127.985 22.3993 127.801 22.3848 127.606 22.2776C127.398 22.1573 126.231 21.4019 125.86 21.1369Z" fill="#CD4631"/>
</g>
<defs>
<clipPath id="clip0_2580_2">
<rect width="64" height="64" fill="white" transform="translate(170.426 25) rotate(60)"/>
</clipPath>
<clipPath id="clip1_2580_2">
<rect width="25.4446" height="26.6566" fill="white" transform="translate(136.808 13.3281) rotate(120)"/>
</clipPath>
</defs>
</svg>
