<?xml version="1.0" standalone="no"?>
<!DOCTYPE svg PUBLIC "-//W3C//DTD SVG 20010904//EN"
 "http://www.w3.org/TR/2001/REC-SVG-20010904/DTD/svg10.dtd">
<svg version="1.0" xmlns="http://www.w3.org/2000/svg"
 width="332.000000pt" height="332.000000pt" viewBox="0 0 332.000000 332.000000"
 preserveAspectRatio="xMidYMid meet">
<metadata>
Created by potrace 1.14, written by Peter Selinger 2001-2017
</metadata>
<g transform="translate(0.000000,332.000000) scale(0.100000,-0.100000)"
fill="#000000" stroke="none">
<path d="M1280 3133 c-19 -2 -79 -13 -134 -24 -492 -102 -897 -457 -1065 -932
-57 -163 -75 -272 -75 -467 -1 -197 13 -284 70 -460 178 -546 691 -942 1266
-977 l98 -6 0 71 0 70 -77 7 c-119 10 -239 33 -335 65 -439 146 -764 515 -859
972 -27 132 -29 341 -5 478 92 521 493 931 1019 1041 143 30 361 30 504 0 442
-93 802 -399 958 -813 10 -27 23 -48 30 -48 16 0 108 31 118 40 8 7 -36 128
-77 208 -86 169 -261 374 -426 498 -242 183 -560 287 -863 282 -62 0 -128 -3
-147 -5z"/>
<path d="M1630 1641 l0 -221 45 0 45 0 0 59 0 58 78 5 c138 8 197 55 197 158
0 115 -57 152 -242 158 l-123 4 0 -221z m249 115 c14 -13 21 -31 21 -57 0 -56
-34 -79 -116 -79 l-64 0 0 81 0 81 69 -4 c50 -2 75 -9 90 -22z"/>
<path d="M2151 1834 c-159 -80 -156 -318 5 -393 90 -43 215 -26 288 38 37 32
59 93 60 162 1 56 -3 72 -29 114 -63 102 -208 137 -324 79z m194 -74 c59 -36
80 -114 51 -185 -42 -100 -210 -100 -252 0 -42 102 21 205 125 205 26 0 56 -8
76 -20z"/>
<path d="M2570 1641 l0 -221 113 0 c140 0 202 17 256 68 47 44 66 104 58 181
-8 72 -43 124 -110 157 -47 25 -66 28 -184 32 l-133 5 0 -222z m273 114 c38
-25 57 -65 57 -123 0 -89 -57 -132 -175 -132 l-65 0 0 141 0 142 78 -5 c52 -3
86 -10 105 -23z"/>
<path d="M1752 1282 c-114 -41 -176 -147 -151 -262 14 -65 57 -122 112 -149
191 -93 397 49 357 245 -28 136 -180 215 -318 166z m143 -86 c97 -41 100 -202
6 -251 -95 -48 -201 17 -201 125 0 106 95 167 195 126z"/>
<path d="M2265 1291 c-53 -13 -93 -40 -117 -78 -21 -35 -23 -51 -26 -200 l-4
-163 56 0 56 0 0 80 0 80 90 0 90 0 0 40 0 40 -90 0 -90 0 0 35 c0 74 68 101
175 70 17 -5 23 1 33 29 7 20 11 40 8 45 -7 11 -96 31 -129 30 -12 -1 -35 -4
-52 -8z"/>
<path d="M1750 710 c-146 -50 -201 -223 -110 -348 71 -98 248 -120 341 -42 34
28 34 28 15 49 -27 30 -54 36 -77 15 -27 -25 -108 -30 -148 -10 -96 50 -95
203 2 249 51 24 98 21 142 -9 l38 -26 31 32 31 31 -30 25 c-32 26 -113 54
-154 54 -14 -1 -51 -9 -81 -20z"/>
<path d="M2188 716 c-59 -21 -86 -43 -110 -89 -19 -37 -23 -61 -26 -194 l-4
-153 56 0 56 0 0 50 0 50 100 0 100 0 0 -50 0 -50 50 0 50 0 0 131 c0 71 -5
151 -12 176 -27 107 -150 168 -260 129z m132 -103 c24 -23 31 -39 36 -85 l7
-58 -102 0 -101 0 0 59 c0 54 3 62 31 85 42 35 89 35 129 -1z"/>
<path d="M2627 719 c-77 -18 -117 -65 -117 -138 0 -60 39 -93 142 -121 46 -12
89 -27 96 -32 17 -14 15 -43 -4 -59 -25 -21 -121 -16 -170 8 l-42 20 -17 -36
c-16 -33 -16 -36 2 -48 9 -8 40 -20 67 -28 97 -29 189 -14 243 40 28 28 33 40
33 82 0 70 -31 97 -151 131 -83 24 -94 30 -97 51 -3 15 3 30 14 38 25 18 119
16 155 -3 17 -8 32 -14 33 -12 1 2 9 18 16 37 12 30 12 35 -4 47 -20 14 -105
35 -139 33 -12 -1 -39 -5 -60 -10z"/>
<path d="M2975 720 c-52 -11 -125 -40 -125 -51 0 -7 19 -57 26 -67 2 -2 28 5
59 17 31 12 58 21 60 21 3 0 5 -81 5 -180 l0 -180 50 0 50 0 0 180 0 180 28
-6 c15 -4 42 -13 61 -20 19 -8 35 -13 36 -12 1 2 10 18 19 35 l16 32 -38 20
c-39 20 -138 42 -181 40 -14 -1 -44 -5 -66 -9z"/>
</g>
</svg>
